<?xml version="1.0" encoding="UTF-8" standalone="no"?>
<!-- Created with Inkscape (http://www.inkscape.org/) -->

<svg
   xmlns:dc="http://purl.org/dc/elements/1.1/"
   xmlns:cc="http://creativecommons.org/ns#"
   xmlns:rdf="http://www.w3.org/1999/02/22-rdf-syntax-ns#"
   xmlns:svg="http://www.w3.org/2000/svg"
   xmlns="http://www.w3.org/2000/svg"
   xmlns:sodipodi="http://sodipodi.sourceforge.net/DTD/sodipodi-0.dtd"
   xmlns:inkscape="http://www.inkscape.org/namespaces/inkscape"
   width="360"
   height="180"
   viewBox="0 0 360 180"
   id="svg2"
   version="1.1"
   inkscape:version="0.91 r13725"
   sodipodi:docname="DribbbleDebut (copy).svg">
  <defs
     id="defs4" />
  <sodipodi:namedview
     id="base"
     pagecolor="#ffffff"
     bordercolor="#666666"
     borderopacity="1.0"
     inkscape:pageopacity="0.0"
     inkscape:pageshadow="2"
     inkscape:zoom="1"
     inkscape:cx="161.57557"
     inkscape:cy="-45.782849"
     inkscape:document-units="px"
     inkscape:current-layer="layer1"
     showgrid="false"
     units="px"
     showguides="false"
     inkscape:window-width="1853"
     inkscape:window-height="1056"
     inkscape:window-x="67"
     inkscape:window-y="24"
     inkscape:window-maximized="1" />
  <metadata
     id="metadata7">
    <rdf:RDF>
      <cc:Work
         rdf:about="">
        <dc:format>image/svg+xml</dc:format>
        <dc:type
           rdf:resource="http://purl.org/dc/dcmitype/StillImage" />
        <dc:title />
      </cc:Work>
    </rdf:RDF>
  </metadata>
  <g
     inkscape:label="Layer 1"
     inkscape:groupmode="layer"
     id="layer1"
     transform="translate(0,-872.36216)">
    <g
       id="g4139"
       transform="translate(-0.19680198,-0.00880039)">
      <path
         sodipodi:nodetypes="zzzzzzzzz"
         inkscape:connector-curvature="0"
         id="rect4134"
         d="m 6.4611489,882.37813 c 5.4792501,-8.45359 21.7236621,-8.5998 83.6083491,-8.8162 61.884692,-0.2164 77.910962,0.0784 83.751122,8.8162 5.84016,8.73776 5.72772,35.82847 5.1755,79.86846 -0.55222,44.04001 0.53097,70.21011 -5.1755,80.15401 -5.70647,9.9439 -35.52053,8.5153 -83.957363,8.7074 -48.436831,0.1921 -77.862479,1.1427 -83.4021081,-8.7074 -5.53962951,-9.8501 -5.69344086,-33.527 -5.264733,-80.02908 0.4287079,-46.50207 -0.2145168,-71.5398 5.264733,-79.99339 z"
         style="opacity:1;fill:#4dc384;fill-opacity:0.7258883;stroke:none;stroke-width:32;stroke-linecap:round;stroke-linejoin:round;stroke-miterlimit:4;stroke-dasharray:none;stroke-dashoffset:10.19999981;stroke-opacity:1" />
      <path
         style="opacity:1;fill:#4dc384;fill-opacity:0.7258883;stroke:none;stroke-width:32;stroke-linecap:round;stroke-linejoin:round;stroke-miterlimit:4;stroke-dasharray:none;stroke-dashoffset:10.19999981;stroke-opacity:1"
         d="m 186.56549,882.37813 c 5.47925,-8.45359 21.72366,-8.5998 83.60835,-8.8162 61.88469,-0.2164 77.91096,0.0784 83.75112,8.8162 5.84016,8.73776 5.72772,35.82847 5.1755,79.86846 -0.55222,44.04001 0.53097,70.21011 -5.1755,80.15401 -5.70647,9.9439 -35.52053,8.5153 -83.95737,8.7074 -48.43683,0.1921 -77.86247,1.1427 -83.4021,-8.7074 -5.53963,-9.8501 -5.69344,-33.527 -5.26474,-80.02908 0.42871,-46.50207 -0.21451,-71.5398 5.26474,-79.99339 z"
         id="path4137"
         inkscape:connector-curvature="0"
         sodipodi:nodetypes="zzzzzzzzz" />
    </g>
    <path
       style="color:#000000;font-style:normal;font-variant:normal;font-weight:normal;font-stretch:normal;font-size:medium;line-height:normal;font-family:sans-serif;text-indent:0;text-align:start;text-decoration:none;text-decoration-line:none;text-decoration-style:solid;text-decoration-color:#000000;letter-spacing:normal;word-spacing:normal;text-transform:none;direction:ltr;block-progression:tb;writing-mode:lr-tb;baseline-shift:baseline;text-anchor:start;white-space:normal;clip-rule:nonzero;display:inline;overflow:visible;visibility:visible;opacity:1;isolation:auto;mix-blend-mode:normal;color-interpolation:sRGB;color-interpolation-filters:linearRGB;solid-color:#000000;solid-opacity:1;fill:#331e78;fill-opacity:1;fill-rule:evenodd;stroke:none;stroke-width:3;stroke-linecap:butt;stroke-linejoin:miter;stroke-miterlimit:4;stroke-dasharray:none;stroke-dashoffset:0;stroke-opacity:1;color-rendering:auto;image-rendering:auto;shape-rendering:auto;text-rendering:auto;enable-background:accumulate"
       d="m 90.441406,915.89732 c -1.608671,0.003 -3.221013,0.0209 -4.486328,0.0449 -2.490817,0.0472 -3.660106,0.0194 -6.298828,0.29297 -2.626491,0.27233 -6.332925,0.76751 -9.433594,1.33789 -3.102662,0.57074 -6.414103,1.37429 -9.03125,2.05859 -2.614222,0.68354 -4.236153,1.16372 -6.767578,2.07422 -2.527266,0.90901 -5.486226,2.05973 -8.449219,3.39844 -2.929862,1.32373 -6.215432,2.8631 -9.263671,4.60742 -3.055083,1.74824 -6.198807,3.91886 -8.794922,5.72266 -2.622667,1.82223 -4.658195,3.37929 -6.945313,5.20898 -2.222089,1.77767 -4.874954,3.63402 -6.941406,5.92188 -1.954435,2.16383 -3.709577,4.43864 -4.8222658,7.21093 l -0.00781,0.0195 -0.00586,0.0195 c -1.0570011,2.86339 -1.513277,5.84707 -1.4863282,8.46679 0.030277,2.94322 0.58155,5.95658 1.484375,8.42969 l 0.00781,0.0234 0.00781,0.0215 c 1.1126888,2.7723 2.8678308,5.0471 4.8222658,7.21094 2.066452,2.28786 4.719317,4.14421 6.941406,5.92187 2.287116,1.82969 4.322642,3.38676 6.945313,5.20899 2.596116,1.80379 5.739839,3.97442 8.794922,5.72265 3.048228,1.74429 6.333807,3.28368 9.263671,4.60743 2.962979,1.33873 5.9219,2.48953 8.449219,3.39843 2.531427,0.9105 4.153351,1.3907 6.767578,2.0742 2.617137,0.6843 5.928594,1.4878 9.03125,2.0586 3.100618,0.5703 6.807083,1.0656 9.433594,1.3379 2.638933,0.2738 3.808282,0.2454 6.298828,0.293 1.263306,0.024 2.87599,0.045 4.488281,0.045 1.607893,0 3.21026,-0.01 4.472657,-0.045 2.509319,-0.073 3.750623,-0.2101 6.029294,-0.4356 2.31056,-0.2286 5.89845,-0.6418 7.85742,-0.9375 1.96528,-0.2967 2.45954,-0.5219 3.68555,-0.8066 1.29836,-0.3015 2.63618,-0.6047 4.29883,-1.0449 1.65164,-0.4373 3.78327,-1.031 5.59766,-1.5762 1.80102,-0.5411 3.55515,-1.0877 5.26562,-1.6895 1.69701,-0.5968 3.23002,-1.1792 4.93359,-1.8984 1.68137,-0.70971 3.40269,-1.45025 5.29883,-2.41992 1.90208,-0.9728 4.10035,-2.25164 5.92969,-3.32226 1.83535,-1.07415 3.46674,-2.05553 5.16406,-3.16993 1.70084,-1.11671 3.44915,-2.36395 4.96094,-3.47656 1.53863,-1.13236 2.81513,-2.19037 4.12109,-3.20703 1.31194,-1.02131 2.75108,-2.09394 3.91797,-3.05273 1.18473,-0.97345 1.88729,-1.70318 2.85156,-2.50782 1.03577,-0.86428 2.21703,-1.86515 3.2168,-2.56445 1.0608,-0.74198 1.99944,-1.33811 2.98633,-1.79687 0.94511,-0.43934 2.04024,-0.73087 3.17578,-1.06055 1.09642,-0.31832 2.12971,-0.60194 3.05664,-0.74414 0.83621,-0.12832 1.71817,-0.10255 2.76172,-0.15625 1.05767,0.0542 2.04089,0.0301 2.86328,0.15625 0.92693,0.1422 1.96022,0.42582 3.05664,0.74414 1.13555,0.32968 2.23068,0.62121 3.17578,1.06055 0.98689,0.45876 1.92553,1.05489 2.98633,1.79687 0.99977,0.6993 2.18104,1.70017 3.2168,2.56445 0.96428,0.80464 1.66684,1.53437 2.85156,2.50782 1.16689,0.95879 2.60603,2.03142 3.91797,3.05273 1.30653,1.01709 2.58492,2.07504 4.12305,3.20703 1.51178,1.11261 3.26009,2.35985 4.96093,3.47656 1.69733,1.1144 3.32872,2.09579 5.16407,3.16993 1.82933,1.07062 4.02761,2.34946 5.92968,3.32226 1.89614,0.96967 3.61747,1.71021 5.29883,2.41992 1.70319,0.719 3.23429,1.3014 4.93164,1.8984 1.71048,0.6018 3.46462,1.1484 5.26563,1.6895 1.81468,0.5453 3.94825,1.1389 5.59961,1.5762 1.66265,0.4402 3.00047,0.7434 4.29883,1.0449 1.22569,0.2846 1.71817,0.5099 3.68359,0.8066 1.95898,0.2957 5.54685,0.7089 7.85742,0.9375 2.27858,0.2255 3.52171,0.3634 6.03125,0.4356 2.525,0.073 6.42737,0.048 8.95899,0 2.49082,-0.047 3.66199,-0.019 6.30078,-0.293 2.62659,-0.2724 6.33114,-0.7676 9.43164,-1.3379 3.10266,-0.5708 6.41411,-1.3743 9.03125,-2.0586 2.61422,-0.6835 4.23615,-1.1637 6.76758,-2.0742 2.52709,-0.9089 5.48796,-2.0596 8.45117,-3.39843 2.92986,-1.32375 6.21544,-2.86314 9.26367,-4.60743 3.05533,-1.74837 6.19714,-3.91906 8.79297,-5.72265 2.62238,-1.82203 4.65983,-3.37903 6.94726,-5.20899 2.22242,-1.77793 4.87334,-3.63439 6.93946,-5.92187 1.95444,-2.16384 3.70958,-4.43864 4.82226,-7.21094 l 0.008,-0.0215 0.008,-0.0195 c 1.04704,-2.85408 1.5187,-6.25177 1.48633,-8.47071 -0.0269,-1.83921 -0.48459,-5.82497 -1.49415,-8.44922 l -0.004,-0.01 -0.004,-0.01 c -1.11268,-2.77229 -2.86782,-5.04709 -4.82226,-7.21093 -2.06612,-2.28748 -4.71704,-4.14395 -6.93946,-5.92188 -2.28744,-1.82995 -4.32489,-3.38695 -6.94726,-5.20898 -2.59583,-1.80359 -5.73764,-3.97428 -8.79297,-5.72266 -3.04824,-1.74432 -6.33381,-3.28369 -9.26367,-4.60742 -2.96322,-1.33881 -5.92413,-2.48952 -8.45117,-3.39844 -2.53143,-0.9105 -4.15337,-1.39068 -6.76758,-2.07422 -2.61715,-0.6843 -5.92858,-1.48785 -9.03125,-2.05859 -3.10055,-0.57036 -6.80507,-1.06555 -9.43164,-1.33789 -2.6388,-0.27362 -3.80998,-0.24576 -6.30078,-0.29297 -2.53106,-0.048 -6.43341,-0.073 -8.95899,0 -2.50929,0.0725 -3.75248,0.21004 -6.03125,0.43555 -2.31053,0.22865 -5.89837,0.64179 -7.85742,0.9375 -1.96544,0.29666 -2.45791,0.52198 -3.68359,0.80664 -1.29831,0.30152 -2.63616,0.60469 -4.29883,1.04492 -1.65139,0.43724 -3.78502,1.03094 -5.59961,1.57617 -1.80102,0.54115 -3.5552,1.0878 -5.26563,1.68945 -1.69735,0.59706 -3.22851,1.17953 -4.93164,1.89844 -1.68133,0.70971 -3.40265,1.45019 -5.29883,2.41992 -1.90211,0.97277 -4.10036,2.25166 -5.92968,3.32227 -1.83536,1.07414 -3.46675,2.05552 -5.16407,3.16992 -1.70084,1.11671 -3.44915,2.36396 -4.96093,3.47656 -1.53813,1.132 -2.81652,2.18994 -4.12305,3.20703 -1.31194,1.02132 -2.75108,2.09395 -3.91797,3.05274 -1.18472,0.97345 -1.88728,1.70318 -2.85156,2.50781 -1.03576,0.86428 -2.21704,1.86517 -3.2168,2.56445 -1.0608,0.74199 -1.99944,1.33811 -2.98633,1.79688 -0.9451,0.43934 -2.04023,0.73087 -3.17578,1.06055 -1.09642,0.31831 -2.12971,0.60194 -3.05664,0.74414 -0.82239,0.12616 -1.80561,0.10208 -2.86328,0.15625 -1.04361,-0.0538 -1.92549,-0.028 -2.76172,-0.15625 -0.92693,-0.1422 -1.96021,-0.42583 -3.05664,-0.74414 -1.13554,-0.32968 -2.23068,-0.62121 -3.17578,-1.06055 -0.98689,-0.45877 -1.92552,-1.05489 -2.98633,-1.79688 -0.99976,-0.69928 -2.18103,-1.70017 -3.2168,-2.56445 -0.96427,-0.80463 -1.66683,-1.53436 -2.85156,-2.50781 -1.16689,-0.9588 -2.60603,-2.03142 -3.91797,-3.05274 -1.30596,-1.01666 -2.58246,-2.07467 -4.12109,-3.20703 -1.51179,-1.1126 -3.2601,-2.35985 -4.96094,-3.47656 -1.69732,-1.1144 -3.3287,-2.09578 -5.16406,-3.16992 -1.82932,-1.07061 -4.02757,-2.3495 -5.92969,-3.32227 -1.89618,-0.96973 -3.61749,-1.71021 -5.29883,-2.41992 -1.70351,-0.71907 -3.23658,-1.3015 -4.93359,-1.89844 -1.71042,-0.60165 -3.46458,-1.1483 -5.26562,-1.68945 -1.8143,-0.54514 -3.94599,-1.13886 -5.59766,-1.57617 -1.66268,-0.44023 -3.00052,-0.7434 -4.29883,-1.04492 -1.226,-0.28474 -1.72024,-0.51 -3.68555,-0.80664 -1.95904,-0.29571 -5.5469,-0.70885 -7.85742,-0.9375 -2.278687,-0.2255 -3.519986,-0.36303 -6.029294,-0.43555 -1.262578,-0.0365 -2.865899,-0.0479 -4.47461,-0.0449 z m 0.0039,3 c 1.589736,-0.003 3.177026,0.01 4.384766,0.0449 2.431328,0.0703 3.527097,0.19318 5.818362,0.41992 2.2594,0.22359 5.87674,0.64199 7.70508,0.91797 1.82211,0.27503 2.07323,0.44274 3.45507,0.76367 1.30953,0.30413 2.60234,0.59609 4.20899,1.02149 1.61764,0.4283 3.73374,1.02085 5.5039,1.55273 1.78348,0.53587 3.49348,1.06593 5.13282,1.64258 1.65275,0.58136 3.11537,1.14099 4.76172,1.83594 1.66852,0.7043 3.30779,1.4098 5.0996,2.32617 1.78589,0.91333 3.95863,2.17354 5.78126,3.24023 1.81658,1.06316 3.39548,2.01391 5.03124,3.08789 1.63225,1.07167 3.3479,2.29447 4.83204,3.38672 1.45728,1.0725 2.70214,2.10333 4.05468,3.15625 1.34657,1.04827 2.77804,2.11667 3.85547,3.00195 1.0596,0.87064 1.74536,1.58607 2.83594,2.4961 1.0191,0.85037 2.2377,1.88988 3.41992,2.71679 1.12118,0.78422 2.21242,1.4882 3.43945,2.0586 1.26882,0.58982 2.52592,0.91119 3.60547,1.22461 1.11868,0.32478 2.26405,0.64585 3.43946,0.82617 1.2071,0.18519 2.22705,0.14117 3.1289,0.19141 l 0.084,0.004 0.084,-0.004 c 0.90032,-0.0501 2.01214,-0.004 3.23438,-0.19141 1.17541,-0.18032 2.32077,-0.50139 3.43945,-0.82617 1.07955,-0.31342 2.33665,-0.63479 3.60547,-1.22461 1.22703,-0.5704 2.31828,-1.27438 3.43945,-2.0586 1.18222,-0.82691 2.40083,-1.86642 3.41992,-2.71679 1.09059,-0.91003 1.77635,-1.62546 2.83594,-2.4961 1.07743,-0.88528 2.50891,-1.95368 3.85547,-3.00195 1.35199,-1.05249 2.59885,-2.08338 4.05664,-3.15625 1.48414,-1.09226 3.19979,-2.31505 4.83203,-3.38672 1.63576,-1.07398 3.21467,-2.02473 5.03125,-3.08789 1.82262,-1.06669 3.99537,-2.3269 5.78125,-3.24023 1.79182,-0.91637 3.43108,-1.62187 5.09961,-2.32617 1.64673,-0.69511 3.10736,-1.2547 4.75977,-1.83594 1.63933,-0.57665 3.34935,-1.10671 5.13281,-1.64258 1.76989,-0.53179 3.88793,-1.12436 5.50586,-1.55273 1.60664,-0.4254 2.89945,-0.71736 4.20898,-1.02149 1.38216,-0.321 1.63117,-0.48866 3.45313,-0.76367 1.82835,-0.27598 5.44567,-0.69438 7.70508,-0.91797 2.29117,-0.22673 3.38896,-0.34965 5.82031,-0.41992 2.41506,-0.0698 6.32338,-0.0472 8.81445,0 2.53133,0.048 3.52044,0.015 6.05078,0.27734 2.54257,0.26364 6.21282,0.75373 9.19727,1.30274 2.98235,0.54861 6.24274,1.33878 8.8164,2.01172 2.57659,0.67369 4.04353,1.10903 6.50977,1.99609 2.47064,0.88864 5.36534,2.01322 8.23242,3.30859 2.90044,1.31045 6.10851,2.8183 9.00977,4.47852 2.89417,1.65616 5.98094,3.78292 8.57031,5.58203 2.56282,1.78066 4.52552,3.28174 6.7832,5.08789 2.32272,1.85817 4.84931,3.66498 6.58789,5.58984 1.84742,2.04535 3.34047,4.02641 4.25782,6.30664 0.70388,1.83671 1.27468,6.15377 1.29297,7.4043 0.0246,1.68782 -0.43372,5.00402 -1.29688,7.36914 -0.91762,2.27685 -2.40867,4.25589 -4.25391,6.29883 -1.73858,1.92486 -4.26517,3.73167 -6.58789,5.58984 -2.25768,1.80615 -4.22038,3.30725 -6.7832,5.08789 -2.58937,1.79911 -5.67614,3.92587 -8.57031,5.58204 -2.90127,1.66019 -6.10933,3.16806 -9.00977,4.47851 -2.86709,1.29539 -5.76183,2.42006 -8.23242,3.30861 -2.46623,0.8871 -3.93319,1.3224 -6.50977,1.9961 -2.57368,0.6729 -5.83404,1.4631 -8.8164,2.0117 -2.9845,0.5489 -6.65472,1.0391 -9.19727,1.3027 -2.53035,0.2624 -3.51946,0.2294 -6.05078,0.2774 -2.4905,0.048 -6.39881,0.069 -8.81445,0 -2.4311,-0.07 -3.52895,-0.1932 -5.82031,-0.42 -2.25938,-0.2235 -5.87667,-0.642 -7.70508,-0.9179 -1.82198,-0.2751 -2.07098,-0.4427 -3.45313,-0.7637 -1.30948,-0.3041 -2.60231,-0.5961 -4.20898,-1.0215 -1.61796,-0.4283 -3.73606,-1.0208 -5.50586,-1.5527 -1.78348,-0.5359 -3.49353,-1.06591 -5.13281,-1.64258 -1.65241,-0.5812 -3.11309,-1.14077 -4.75977,-1.83594 -1.66849,-0.70428 -3.30775,-1.40984 -5.09961,-2.32617 -1.78592,-0.9134 -3.95865,-2.17356 -5.78125,-3.24024 -1.81659,-1.06316 -3.39549,-2.01391 -5.03125,-3.08789 -1.63224,-1.07167 -3.34789,-2.29446 -4.83203,-3.38672 -1.45779,-1.07286 -2.70465,-2.10376 -4.05664,-3.15625 -1.34656,-1.04826 -2.77804,-2.11666 -3.85547,-3.00195 -1.0596,-0.87063 -1.74536,-1.58607 -2.83594,-2.49609 -1.0191,-0.85038 -2.23771,-1.88988 -3.41992,-2.7168 -1.12118,-0.78422 -2.21242,-1.4882 -3.43945,-2.05859 -1.26882,-0.58983 -2.52592,-0.91119 -3.60547,-1.22461 -1.11868,-0.32478 -2.26405,-0.64586 -3.43945,-0.82618 -1.22224,-0.18749 -2.33406,-0.14133 -3.23438,-0.1914 l -0.084,-0.004 -0.084,0.004 c -0.9019,0.0502 -1.92178,0.006 -3.1289,0.1914 -1.17541,0.18032 -2.32078,0.5014 -3.43946,0.82618 -1.07955,0.31342 -2.33665,0.63479 -3.60547,1.22461 -1.22703,0.57039 -2.31827,1.27437 -3.43945,2.05859 -1.18221,0.82692 -2.40082,1.86642 -3.41992,2.7168 -1.09058,0.91002 -1.77634,1.62546 -2.83594,2.49609 -1.07743,0.88529 -2.5089,1.95369 -3.85547,3.00195 -1.35254,1.05292 -2.5974,2.08376 -4.05468,3.15625 -1.48414,1.09226 -3.19979,2.31505 -4.83204,3.38672 -1.63575,1.07398 -3.21466,2.02473 -5.03124,3.08789 -1.82261,1.06668 -3.99533,2.32684 -5.78126,3.24024 -1.79185,0.91633 -3.43111,1.62189 -5.0996,2.32617 -1.64629,0.69501 -3.10898,1.25462 -4.76172,1.83594 -1.63929,0.57668 -3.34932,1.10668 -5.13282,1.64258 -1.77007,0.5319 -3.88622,1.1244 -5.5039,1.5527 -1.60667,0.4254 -2.8995,0.7174 -4.20899,1.0215 -1.38182,0.3209 -1.63293,0.4886 -3.45507,0.7637 -1.82841,0.2759 -5.44572,0.6944 -7.70508,0.9179 -2.291281,0.2268 -3.387045,0.3497 -5.818362,0.42 -1.20737,0.035 -2.794917,0.048 -4.384766,0.045 l -0.002,0 c -1.586154,0 -3.181929,-0.021 -4.429687,-0.045 -2.531582,-0.048 -3.518624,-0.015 -6.048828,-0.2774 -2.542627,-0.2636 -6.214829,-0.7538 -9.199219,-1.3027 -2.982352,-0.5486 -6.242733,-1.3388 -8.816406,-2.0117 -2.576581,-0.6737 -4.043527,-1.109 -6.509766,-1.9961 -2.470347,-0.88847 -5.363147,-2.01312 -8.230469,-3.30861 -2.900435,-1.31045 -6.108492,-2.81832 -9.009765,-4.47851 -2.89442,-1.65631 -5.983182,-3.78313 -8.572266,-5.58204 -2.562529,-1.78044 -4.523231,-3.28147 -6.78125,-5.08789 -2.323045,-1.85843 -4.851602,-3.66536 -6.589844,-5.58984 -1.846325,-2.04415 -3.338374,-4.0242 -4.255859,-6.30273 -0.758579,-2.08991 -1.26654,-4.83322 -1.292969,-7.40235 -0.02298,-2.23355 0.380778,-4.89198 1.291016,-7.36914 0.9174,-2.27957 2.410825,-4.25981 4.257812,-6.30469 1.738242,-1.92448 4.266799,-3.73141 6.589844,-5.58984 2.258016,-1.80641 4.218716,-3.30743 6.78125,-5.08789 2.589084,-1.79891 5.677847,-3.92573 8.572266,-5.58203 2.901263,-1.66022 6.109327,-3.16807 9.009765,-4.47852 2.867308,-1.29547 5.760069,-2.42004 8.230469,-3.30859 2.466241,-0.88706 3.93318,-1.3224 6.509766,-1.99609 2.573663,-0.67294 5.83406,-1.46311 8.816406,-2.01172 2.98434,-0.54898 6.656572,-1.03909 9.199219,-1.30274 2.530416,-0.26237 3.517517,-0.22936 6.048828,-0.27734 1.245749,-0.0236 2.841866,-0.0419 4.43164,-0.0449 z"
       id="path4143"
       inkscape:connector-curvature="0" />
  </g>
</svg>
