<?xml version="1.0" encoding="UTF-8" standalone="no"?>
<!-- Created with Inkscape (http://www.inkscape.org/) -->

<svg
   xmlns:dc="http://purl.org/dc/elements/1.1/"
   xmlns:cc="http://creativecommons.org/ns#"
   xmlns:rdf="http://www.w3.org/1999/02/22-rdf-syntax-ns#"
   xmlns:svg="http://www.w3.org/2000/svg"
   xmlns="http://www.w3.org/2000/svg"
   xmlns:sodipodi="http://sodipodi.sourceforge.net/DTD/sodipodi-0.dtd"
   xmlns:inkscape="http://www.inkscape.org/namespaces/inkscape"
   width="360"
   height="180"
   viewBox="0 0 360 180"
   id="svg2"
   version="1.1"
   inkscape:version="0.91 r13725"
   sodipodi:docname="D2.svg">
  <defs
     id="defs4" />
  <sodipodi:namedview
     id="base"
     pagecolor="#ffffff"
     bordercolor="#666666"
     borderopacity="1.0"
     inkscape:pageopacity="0.0"
     inkscape:pageshadow="2"
     inkscape:zoom="2.5014835"
     inkscape:cx="175.57831"
     inkscape:cy="100.00502"
     inkscape:document-units="px"
     inkscape:current-layer="layer1"
     showgrid="false"
     units="px"
     showguides="false"
     inkscape:window-width="1853"
     inkscape:window-height="1056"
     inkscape:window-x="1987"
     inkscape:window-y="24"
     inkscape:window-maximized="1" />
  <metadata
     id="metadata7">
    <rdf:RDF>
      <cc:Work
         rdf:about="">
        <dc:format>image/svg+xml</dc:format>
        <dc:type
           rdf:resource="http://purl.org/dc/dcmitype/StillImage" />
        <dc:title />
      </cc:Work>
    </rdf:RDF>
  </metadata>
  <g
     inkscape:label="Layer 1"
     inkscape:groupmode="layer"
     id="layer1"
     transform="translate(0,-872.36216)">
    <path
       style="opacity:1;fill:#000000;fill-opacity:1;stroke:none;stroke-width:32;stroke-linecap:round;stroke-linejoin:round;stroke-miterlimit:4;stroke-dasharray:none;stroke-dashoffset:10.19999981;stroke-opacity:1"
       d="m 111,873.5106 -1.20238,-4.7e-4 -1.21765,6e-5 -1.23302,5.9e-4 -1.24848,0.001 -1.26406,0.002 -1.27973,0.002 -1.2955,0.002 -1.31138,0.003 -1.327355,0.003 -1.343435,0.003 -1.359616,0.004 -1.375898,0.004 -1.392282,0.004 -1.408768,0.005 -1.425355,0.005 -1.442044,0.005 -11.077057,0.042 -10.058471,0.0525 -9.090969,0.0754 -8.17455,0.1105 -7.309214,0.15791 -6.494962,0.21762 -5.731794,0.2896 -5.019709,0.37388 -4.358708,0.47042 -3.74879,0.57922 -3.189956,0.70029 -2.682206,0.83363 -2.225538,0.97925 -1.8199558,1.13714 -1.4654557,1.30731 -1.1620396,1.48974 -0.9573527,1.78057 -0.8243753,2.17638 -0.7019395,2.57935 -0.5900454,2.98947 -0.4886928,3.40674 -0.3978817,3.83117 -0.3176123,4.26274 -0.2478844,4.70147 -0.188696,5.14729 -0.1400531,5.60033 -0.1019516,6.06054 -0.074392,6.52789 -0.057373,7.00238 -0.050896,7.48403 -0.05496,7.97283 -0.069566,8.46878 -0.0723955,8.45385 -0.0517284,7.93208 -0.0240221,7.42347 0.0107234,6.92807 0.0525081,6.44582 0.101332,5.97676 0.157195,5.5209 0.2200972,5.0782 0.2900387,4.6487 0.3670193,4.2323 0.4510392,3.8292 0.5420982,3.4392 0.6401964,3.0625 0.7453339,2.6988 0.8575104,2.3484 0.9767263,2.0111 1.3173951,1.7231 1.870094,1.4869 2.4156497,1.2677 2.954063,1.0653 3.485333,0.8798 4.009459,0.7114 4.526443,0.5599 5.036284,0.4252 5.538984,0.3075 6.034544,0.2069 6.522962,0.1229 7.004239,0.056 7.478374,0.01 7.945368,-0.027 8.405221,-0.043 8.857931,-0.042 8.862327,-0.02 8.417817,0 7.96527,0 7.50469,-0.02 7.03607,-0.059 6.55944,-0.1157 6.07475,-0.192 5.58204,-0.2872 5.08129,-0.4015 4.57251,-0.5348 4.0557,-0.6871 3.53085,-0.8585 2.99797,-1.0489 2.45706,-1.2584 1.90812,-1.4868 1.35113,-1.7344 0.91506,-1.8698 0.79127,-2.1946 0.67693,-2.5207 0.57203,-2.848 0.4766,-3.1767 0.39061,-3.5067 0.31406,-3.838 0.24697,-4.1706 0.69459,-45.49605 -0.73606,0.0345 -0.70144,0.0749 -1.46476,0.30602 -1.59188,0.43812 -1.6593,0.48915 -1.51648,0.5714 -1.46545,0.79223 -1.52088,1.00464 -1.5949,1.22036 -1.6219,1.34409 -1.3431,1.19061 -1.50846,1.31721 -1.90459,1.50292 -2.01338,1.54981 -1.97329,1.56013 -2.1478,1.6469 -2.40958,1.73674 -2.55136,1.73982 -2.53027,1.60006 -2.63379,1.56987 -2.93757,1.69782 -2.99212,1.62444 -2.72995,1.30745 -2.56888,1.11246 -2.46926,0.9951 -2.46433,0.9033 -2.59885,0.8675 -2.66677,0.822 -2.85986,0.8286 -2.7378,0.7476 -2.28602,0.5745 -2.01281,0.4704 -1.56555,0.3988 -2.12,0.4078 -3.79686,0.4939 -4.06056,0.4436 -2.928153,0.275 -3.101141,0.1606 -2.106768,0.036 -2.365889,0.01 -2.37501,-0.014 -2.113271,-0.032 -3.093769,-0.062 -3.205059,-0.2313 -4.539007,-0.5572 -4.894587,-0.7807 -4.697695,-0.9867 -4.333555,-1.0719 -3.414839,-0.952 -3.352739,-1.1222 -4.061237,-1.538 -4.387982,-1.86042 -4.587446,-2.14602 -4.676225,-2.46141 -4.569576,-2.84049 -4.225346,-2.88216 -3.598488,-2.6017 -3.346825,-2.60729 -3.529065,-2.76961 -3.412341,-3.15226 -2.726788,-3.3773 -2.0954775,-3.83364 -0.0039,-0.0108 -0.0039,-0.0108 -0.0039,-0.0117 -0.00391,-0.0117 -1.069393,-4.03855 -0.414982,-4.39114 0.3366828,-4.14202 1.1496454,-4.32477 0.00293,-0.01 0.00293,-0.01 0.0039,-0.01 0.0039,-0.01 2.0954773,-3.83364 2.726788,-3.37729 3.412345,-3.15226 3.529061,-2.76962 3.346825,-2.60729 3.598488,-2.60169 4.225351,-2.88216 4.569571,-2.8405 4.676227,-2.46143 4.587444,-2.14599 4.388009,-1.86035 4.06121,-1.53809 3.35274,-1.12222 3.414838,-0.952 4.333557,-1.07188 4.697693,-0.98671 4.894614,-0.78071 4.53898,-0.55718 3.204879,-0.23137 3.093949,-0.0616 2.114406,-0.0303 2.371922,-0.0146 2.367105,0.007 2.107505,0.0374 3.101131,0.1604 2.92816,0.27515 4.06052,0.44361 3.7969,0.49389 2.12002,0.40779 1.56553,0.39885 2.01278,0.47044 2.28605,0.57448 2.73785,0.74765 2.85981,0.82852 2.6668,0.82204 2.59882,0.86741 2.46436,0.90342 2.46923,0.99502 2.56885,1.11245 2.72998,1.30747 2.99215,1.62444 2.93754,1.69783 2.6338,1.56986 2.53026,1.60006 2.55137,1.73982 2.40957,1.73674 2.1478,1.6469 1.97329,1.56013 2.01338,1.54981 1.90459,1.50293 1.50846,1.31721 1.3431,1.1906 1.6219,1.3441 1.5949,1.22035 1.52089,1.00465 1.46544,0.79223 1.51648,0.5714 1.6593,0.48915 1.59189,0.43811 1.46475,0.30603 0.80266,0.0821 0.84969,0.0351 0.066,-6.91698 0.0422,-6.58287 0.0122,-6.24666 -0.024,-5.90834 -0.0665,-5.56792 -0.11527,-5.2254 -0.17026,-4.88077 -0.23149,-4.53403 -0.29897,-4.1852 -0.37269,-3.83426 -0.45266,-3.48121 -0.53887,-3.12606 -0.63134,-2.76881 -0.73004,-2.40946 -0.83499,-2.04799 -0.94619,-1.68443 -1.05537,-1.35912 -1.27313,-1.21542 -1.52591,-1.07952 -1.81368,-0.95138 -2.13648,-0.83104 -2.49428,-0.71845 -2.88709,-0.61367 -3.31492,-0.51665 -3.77768,-0.42733 -4.27556,-0.34574 -4.80844,-0.27199 -5.37633,-0.20604 -5.97921,-0.14793 -6.6171,-0.0976 -7.28999,-0.0552 -7.99788,-0.0205 z"
       id="path4140"
       inkscape:connector-curvature="0"
       sodipodi:nodetypes="cccccccccsccccccccccccccccccccccccccccccccccccccccccccccccccccccccccccccccccccccccccccccccccccccccccccccccccccccccccccccccccccccccccccccccccccccccccccccccccccccccccccccccccccccccccccccccccccccccccccccccccccccccccccccccccccccccccccccccccccccccccccccccccccccccccccccccccccccccc" />
    <path
       style="opacity:1;fill:#000000;fill-opacity:1;stroke:none;stroke-width:32;stroke-linecap:round;stroke-linejoin:round;stroke-miterlimit:4;stroke-dasharray:none;stroke-dashoffset:10.19999981;stroke-opacity:1"
       d="m 291.10352,873.5106 -1.20238,-4.7e-4 -1.21765,6e-5 -1.23302,5.7e-4 -1.24849,10e-4 -1.26405,0.002 -1.27973,0.002 -1.29551,0.002 -1.31137,0.003 -1.32736,0.003 -1.34344,0.003 -1.35961,0.004 -1.3759,0.004 -1.39228,0.004 -1.40877,0.005 -1.42536,0.005 -1.44204,0.005 -11.07704,0.0419 -10.05841,0.0525 -9.09087,0.0754 -8.17442,0.11053 -7.30907,0.15796 -6.4948,0.21766 -5.73161,0.28965 -5.01953,0.37389 -4.35852,0.47042 -3.74862,0.57922 -3.18979,0.70029 -2.68206,0.83364 -2.22541,0.97925 -1.81986,1.13714 -1.46539,1.3073 -1.16202,1.48974 -0.88089,1.62265 -0.76921,1.9712 -0.66555,2.32262 -0.56992,2.67692 -0.48231,3.0341 -0.40272,3.39417 -0.33116,3.75711 -0.26762,4.12293 -0.2121,4.49164 -0.1646,4.86322 -0.12513,5.23768 -0.0937,5.61503 -0.0702,5.99524 -0.0548,6.37835 -0.0475,6.76434 -0.0481,7.15319 1.70508,-0.11718 3.05664,-0.74414 3.17578,-1.06055 2.98633,-1.79688 3.2168,-2.56445 2.85156,-2.50781 3.91797,-3.05274 4.12305,-3.20703 4.96093,-3.47656 5.16407,-3.16992 5.92968,-3.32227 5.29883,-2.41992 4.93164,-1.89844 5.26563,-1.68945 5.59961,-1.57617 4.29883,-1.04492 3.68359,-0.80664 7.85742,-0.9375 6.03125,-0.43555 8.95899,0 6.30078,0.29297 9.43164,1.33789 9.03125,2.05859 6.76758,2.07422 8.45117,3.39844 9.26367,4.60742 8.79297,5.72266 6.94726,5.20898 6.93946,5.92188 4.82226,7.21093 0.004,0.01 0.004,0.01 1.49415,8.44922 -1.48633,8.47071 -0.008,0.0195 -0.008,0.0215 -4.82226,7.21094 -6.93946,5.92187 -6.94726,5.20899 -8.79297,5.72265 -9.26367,4.60743 -8.45117,3.39839 -6.76758,2.0742 -9.03125,2.0586 -9.43164,1.3379 -6.30078,0.293 -8.95899,0 -6.03125,-0.4356 -7.85742,-0.9375 -3.68359,-0.8066 -4.29883,-1.0449 -5.59961,-1.5762 -5.26563,-1.6895 -4.93164,-1.8984 -5.29883,-2.41988 -5.92968,-3.32226 -5.16407,-3.16993 -4.96093,-3.47656 -4.12305,-3.20703 -3.91797,-3.05273 -2.85156,-2.50782 -3.2168,-2.56445 -2.98633,-1.79687 -3.17578,-1.06055 -3.05664,-0.74414 -1.86523,-0.12305 -0.0424,7.19747 -0.018,6.77338 0.012,6.35887 0.0475,5.95396 0.0885,5.55859 0.13507,5.1728 0.18711,4.7967 0.24467,4.4301 0.30774,4.073 0.37633,3.7257 0.45043,3.3877 0.53004,3.0596 0.61517,2.7408 0.70582,2.4317 0.80197,2.1322 0.90365,1.8422 1.31741,1.7231 1.87009,1.487 2.41565,1.2676 2.95406,1.0653 3.48533,0.8799 4.00946,0.7114 4.52643,0.5598 5.03629,0.4252 5.53898,0.3076 6.03454,0.2068 6.52297,0.1229 7.00424,0.056 7.47837,0.01 7.94537,-0.027 8.40522,-0.043 8.85793,-0.042 8.86233,-0.02 8.41782,0 7.96527,0 7.50469,-0.02 7.03608,-0.059 6.55943,-0.1158 6.07475,-0.1919 5.58204,-0.2872 5.08129,-0.4015 4.57251,-0.5346 4.0557,-0.6873 3.53086,-0.8585 2.99797,-1.0489 2.45706,-1.2584 1.90811,-1.4867 1.35113,-1.7345 0.99246,-2.055 0.84567,-2.4378 0.71122,-2.8228 0.58913,-3.2104 0.47936,-3.6003 0.38193,-3.9927 0.29685,-4.3874 0.22411,-4.7846 0.16371,-5.1842 0.11565,-5.5861 0.0799,-5.99056 0.0566,-6.39729 0.0455,-6.80648 0.0468,-7.21809 0.0605,-7.63208 0.0864,-8.0485 0.097,-8.05852 0.0786,-7.65918 0.0522,-7.25781 0.0176,-6.85436 -0.025,-6.44888 -0.0756,-6.04134 -0.13441,-5.63174 -0.20125,-5.2201 -0.27616,-4.8064 -0.35914,-4.39065 -0.4502,-3.97285 -0.54934,-3.55299 -0.65655,-3.13109 -0.77183,-2.70712 -0.89519,-2.28111 -1.02662,-1.85305 -1.05539,-1.3591 -1.27319,-1.21542 -1.526,-1.07951 -1.8138,-0.95137 -2.13663,-0.83102 -2.49445,-0.71845 -2.88727,-0.61366 -3.3151,-0.51665 -3.77793,-0.42741 -4.27577,-0.34595 -4.80862,-0.27228 -5.37646,-0.20639 -5.97931,-0.14826 -6.61716,-0.0979 -7.29003,-0.0554 -7.99789,-0.0206 10e-6,-3e-5 1e-5,-3e-5 10e-6,-3e-5 1e-5,-3e-5 2e-5,-3e-5 10e-6,-3e-5 10e-6,-3e-5 1e-5,-4e-5 10e-6,-3e-5 1e-5,-3e-5 10e-6,-3e-5 1e-5,-3e-5 2e-5,-3e-5 10e-6,-3e-5 10e-6,-3e-5 z"
       id="path4138"
       inkscape:connector-curvature="0"
       sodipodi:nodetypes="ccccccccccccccccccccccccccccccccccccccccccccccccccccccccccccccccccccccccccccccccccccccccccccccccccccccccccccccccccccccccccccccccccccccccccccccccccccccccccccccccccccccccccccccccccccccccccccccccccccccccccccccccccccccccccccccccccc" />
    <path
       style="opacity:0.99999999;fill:#000000;fill-opacity:1;stroke:none;stroke-width:32;stroke-linecap:round;stroke-linejoin:round;stroke-miterlimit:4;stroke-dasharray:none;stroke-dashoffset:10.19999981;stroke-opacity:1"
       d="m 90.445312,918.89732 -2.344829,0.0147 -2.086811,0.0302 -3.02475,0.0583 -3.024078,0.21905 -4.433975,0.54437 -4.765244,0.75837 -4.561459,0.95923 -4.254947,1.05249 -3.296262,0.91803 -3.213504,1.07806 -3.966393,1.5017 -4.264076,1.80689 -4.504575,2.10809 -4.50519,2.37043 -4.400633,2.73754 -4.171633,2.84449 -3.504819,2.53421 -3.276431,2.55368 -3.514223,2.77015 -3.075621,2.81969 -2.477502,3.06434 -1.78031,3.24035 -0.995465,3.77592 -0.295551,3.59322 0.37193,3.88088 0.921039,3.52147 1.779615,3.23926 2.476244,3.06347 3.07562,2.81969 3.514224,2.77015 3.276436,2.55369 3.504814,2.5342 4.171635,2.84449 4.400631,2.73755 4.50519,2.37042 4.504575,2.10809 4.2641,1.80693 3.966369,1.50169 3.213505,1.0781 3.296261,0.918 4.254948,1.0524 4.561458,0.9593 4.765271,0.7583 4.433948,0.5444 3.023897,0.2191 3.024931,0.058 2.087945,0.032 2.341742,0.014 0.001,0 10e-4,0 2.335813,-0.01 2.048953,-0.036 2.961694,-0.1512 2.856671,-0.2688 4.01414,-0.4393 3.69094,-0.4786 1.89265,-0.3647 1.56242,-0.399 1.99305,-0.4653 2.21594,-0.5562 2.6948,-0.7375 2.8091,-0.8152 2.62049,-0.806 2.51233,-0.83659 2.38328,-0.87534 2.37844,-0.9606 2.50354,-1.08357 2.59606,-1.2426 2.87687,-1.56264 2.90439,-1.6776 2.58343,-1.53988 2.44781,-1.54801 2.47156,-1.68564 2.36048,-1.70108 2.06661,-1.58546 1.98807,-1.57079 2.02866,-1.56209 1.82681,-1.43986 1.40635,-1.23328 1.42959,-1.26281 1.64879,-1.3672 1.77113,-1.3496 1.68003,-1.10948 1.75942,-0.94911 1.87371,-0.71595 1.73176,-0.50866 1.69845,-0.46726 1.74101,-0.35892 1.00145,-0.11154 0.91652,-0.0427 0.0314,-3.71364 0.0389,-3.8098 0.0436,-3.77534 0.0404,-3.6856 -0.9861,-0.0408 -1.08616,-0.11739 -1.74101,-0.35891 -1.69845,-0.46726 -1.73176,-0.50865 -1.87371,-0.71596 -1.75942,-0.94911 -1.68003,-1.10949 -1.77113,-1.3496 -1.64879,-1.36719 -1.42959,-1.26282 -1.40635,-1.23328 -1.82681,-1.43986 -2.02866,-1.56209 -1.98807,-1.57078 -2.06661,-1.58547 -2.36048,-1.70108 -2.47156,-1.68564 -2.44782,-1.548 -2.58342,-1.53989 -2.90441,-1.67763 -2.87685,-1.5626 -2.59604,-1.24261 -2.50356,-1.08356 -2.37847,-0.96056 -2.38325,-0.87538 -2.51236,-0.83658 -2.62046,-0.806 -2.80915,-0.8152 -2.69475,-0.73753 -2.21592,-0.55622 -1.99307,-0.46527 -1.56244,-0.39905 -1.89263,-0.36462 -3.6909,-0.47863 -4.01418,-0.43934 -2.856661,-0.26863 -2.961704,-0.15129 -2.049134,-0.0367 -2.335632,-0.008 -2.8e-5,0 z"
       id="path4136"
       inkscape:connector-curvature="0"
       sodipodi:nodetypes="ccccccccccccccccccccccccccccccccccccccccccccccccccccccccccccccccccccccccccccccccccccccccccccccccccccccccccccccccccccccccccccccccccccccccc" />
    <path
       style="opacity:1;fill:#000000;fill-opacity:1;stroke:none;stroke-width:32;stroke-linecap:round;stroke-linejoin:round;stroke-miterlimit:4;stroke-dasharray:none;stroke-dashoffset:10.19999981;stroke-opacity:1"
       d="m 269.70312,918.89927 -2.333,0.007 -2.0459,0.0358 -2.96272,0.1513 -2.85759,0.26862 -4.01419,0.43934 -3.69089,0.47863 -1.89149,0.36459 -1.56164,0.39908 -1.99307,0.46527 -2.21591,0.55622 -2.69594,0.73758 -2.80992,0.81515 -2.62045,0.806 -2.51236,0.83658 -2.38201,0.87527 -2.37776,0.96067 -2.50357,1.08356 -2.59604,1.24261 -2.87685,1.56261 -2.9044,1.67762 -2.58343,1.53989 -2.44782,1.548 -2.47155,1.68564 -2.36048,1.70108 -2.068,1.58577 -1.98864,1.57048 -2.02866,1.56209 -1.82681,1.43986 -1.40635,1.23327 -1.42959,1.26283 -1.64879,1.36719 -1.77113,1.3496 -1.68003,1.10948 -1.75942,0.94912 -1.87371,0.71596 -1.73176,0.50865 -1.69845,0.46726 -1.741,0.35891 -1.13594,0.11999 -1.0457,0.0402 -0.0259,3.7319 -0.0307,3.85208 -0.03,3.74811 -0.0266,3.64056 1.09624,0.0395 1.19868,0.12458 1.741,0.35892 1.69845,0.46726 1.73176,0.50865 1.87371,0.71596 1.75942,0.94911 1.68003,1.10948 1.77113,1.3496 1.64879,1.3672 1.42959,1.26282 1.40635,1.23327 1.82681,1.43986 2.02866,1.56209 1.98865,1.57049 2.06799,1.58576 2.36048,1.70108 2.47155,1.68564 2.44781,1.548 2.58344,1.53989 2.90438,1.6776 2.87687,1.56264 2.59607,1.2426 2.50354,1.08357 2.37774,0.96071 2.38203,0.87523 2.51233,0.8366 2.62048,0.806 2.80987,0.8152 2.69599,0.7375 2.21594,0.5563 1.99304,0.4652 1.56163,0.3991 1.8915,0.3646 3.69093,0.4787 4.01415,0.4392 2.85775,0.2689 2.96256,0.1511 4.37915,0.044 4.4353,-0.044 3.02575,-0.058 3.02503,-0.2191 4.4329,-0.5443 4.76437,-0.7584 4.56146,-0.9592 4.25494,-1.0525 3.29627,-0.918 3.2135,-1.0781 3.96752,-1.50177 4.2649,-1.80686 4.50457,-2.1081 4.5052,-2.37041 4.39946,-2.73741 4.17085,-2.84463 3.50602,-2.53438 3.27718,-2.55351 3.513,-2.76991 3.07489,-2.81993 2.47481,-3.0617 1.7791,-3.23713 0.98135,-3.93856 0.31553,-3.43058 -0.38939,-3.48233 -0.90358,-3.92197 -1.78013,-3.2414 -2.47769,-3.06524 -3.07489,-2.81993 -3.513,-2.76991 -3.27717,-2.5535 -3.50603,-2.53439 -4.17086,-2.84462 -4.39945,-2.73741 -4.50519,-2.37042 -4.50458,-2.1081 -4.26487,-1.80682 -3.96755,-1.50177 -3.2135,-1.07806 -3.29627,-0.91803 -4.25494,-1.05249 -4.56146,-0.95923 -4.76434,-0.75838 -4.43293,-0.54436 -3.02502,-0.21905 -3.02576,-0.0583 -2.08847,-0.0293 -2.34708,-0.0137 -4e-5,0 z"
       id="rect4134"
       inkscape:connector-curvature="0"
       sodipodi:nodetypes="ccccccccccccccccccccccccccccccccccccccccccccccccccccccccccccccccccccccccccccccccccccccccccccccccccccccccccccccccccccccccccccccccccccc" />
  </g>
</svg>
