<?xml version="1.0" encoding="UTF-8" standalone="no"?>
<!-- Created with Inkscape (http://www.inkscape.org/) -->

<svg
   xmlns:dc="http://purl.org/dc/elements/1.1/"
   xmlns:cc="http://creativecommons.org/ns#"
   xmlns:rdf="http://www.w3.org/1999/02/22-rdf-syntax-ns#"
   xmlns:svg="http://www.w3.org/2000/svg"
   xmlns="http://www.w3.org/2000/svg"
   xmlns:sodipodi="http://sodipodi.sourceforge.net/DTD/sodipodi-0.dtd"
   xmlns:inkscape="http://www.inkscape.org/namespaces/inkscape"
   width="360"
   height="180"
   viewBox="0 0 360 180"
   id="svg2"
   version="1.1"
   inkscape:version="0.91 r13725"
   sodipodi:docname="D3.svg">
  <defs
     id="defs4" />
  <sodipodi:namedview
     id="base"
     pagecolor="#ffffff"
     bordercolor="#666666"
     borderopacity="1.0"
     inkscape:pageopacity="0.0"
     inkscape:pageshadow="2"
     inkscape:zoom="2.6599368"
     inkscape:cx="103.09405"
     inkscape:cy="99.178221"
     inkscape:document-units="px"
     inkscape:current-layer="layer1"
     showgrid="false"
     units="px"
     showguides="false"
     inkscape:window-width="1853"
     inkscape:window-height="1056"
     inkscape:window-x="1987"
     inkscape:window-y="24"
     inkscape:window-maximized="1" />
  <metadata
     id="metadata7">
    <rdf:RDF>
      <cc:Work
         rdf:about="">
        <dc:format>image/svg+xml</dc:format>
        <dc:type
           rdf:resource="http://purl.org/dc/dcmitype/StillImage" />
        <dc:title></dc:title>
      </cc:Work>
    </rdf:RDF>
  </metadata>
  <g
     inkscape:label="Layer 1"
     inkscape:groupmode="layer"
     id="layer1"
     transform="translate(0,-872.36216)">
    <g
       id="g4139"
       transform="translate(-0.19680198,-0.00880039)">
      <path
         style="opacity:1;fill:#4dc384;fill-opacity:0.7258883;stroke:none;stroke-width:32;stroke-linecap:round;stroke-linejoin:round;stroke-miterlimit:4;stroke-dasharray:none;stroke-dashoffset:10.19999981;stroke-opacity:1"
         d="m 107.36914,877.5332 c -31.288377,1.28818 -63.165105,-2.62008 -93.93164,4.03321 -8.3720602,5.16773 -5.9439843,16.69207 -7.2441406,24.95703 -1.6923239,34.5663 -0.7064795,69.25044 -0.9093201,103.85686 0.6690125,10.153 0.4850069,21.466 5.4405697,30.5552 8.860994,7.1448 20.850065,4.3178 31.451287,5.9299 35.091659,0.7483 70.218804,0.2119 105.298714,-0.422 7.38773,-0.9006 16.55681,-0.6092 22.28711,-5.9883 6.45008,-10.5499 3.13086,-23.4485 4.68422,-35.2025 0.39924,-36.68502 1.97781,-73.62916 -0.83656,-110.1608 -0.46518,-7.32742 -5.06589,-15.39559 -13.24219,-15.41016 -17.45401,-2.7718 -35.32361,-1.80543 -52.99805,-2.14844 z"
         id="rect4134"
         inkscape:connector-curvature="0" />
      <path
         style="opacity:1;fill:#4dc384;fill-opacity:0.7258883;stroke:none;stroke-width:32;stroke-linecap:round;stroke-linejoin:round;stroke-miterlimit:4;stroke-dasharray:none;stroke-dashoffset:10.19999981;stroke-opacity:1"
         d="m 287.46875,877.5332 c -31.16462,1.17258 -62.76526,-2.38315 -93.49219,3.80664 -8.94357,5.02123 -6.40624,16.9754 -7.68449,25.47296 -1.72962,34.21018 -0.64825,68.53878 -0.92529,102.7903 0.52261,10.4203 0.60174,21.515 5.15861,31.0571 8.77013,7.4902 21.21674,4.5754 31.74817,6.2051 35.12528,0.7416 70.28852,0.233 105.40027,-0.4473 7.5198,-0.8769 16.67883,-0.5581 22.36794,-6.2162 6.21637,-10.5599 2.9513,-23.2645 4.50629,-34.9277 0.38899,-36.63366 1.99691,-73.39681 -0.84298,-109.95379 -0.40317,-7.01244 -4.38387,-14.99787 -12.12305,-15.39843 -17.69772,-3.16095 -36.09645,-1.9541 -54.11328,-2.38868 z"
         id="path4137"
         inkscape:connector-curvature="0" />
    </g>
    <path
       style="color:#000000;font-style:normal;font-variant:normal;font-weight:normal;font-stretch:normal;font-size:medium;line-height:normal;font-family:sans-serif;text-indent:0;text-align:start;text-decoration:none;text-decoration-line:none;text-decoration-style:solid;text-decoration-color:#000000;letter-spacing:normal;word-spacing:normal;text-transform:none;direction:ltr;block-progression:tb;writing-mode:lr-tb;baseline-shift:baseline;text-anchor:start;white-space:normal;clip-rule:nonzero;display:inline;overflow:visible;visibility:visible;opacity:1;isolation:auto;mix-blend-mode:normal;color-interpolation:sRGB;color-interpolation-filters:linearRGB;solid-color:#000000;solid-opacity:1;fill:#331e78;fill-opacity:1;fill-rule:evenodd;stroke:none;stroke-width:3;stroke-linecap:butt;stroke-linejoin:miter;stroke-miterlimit:4;stroke-dasharray:none;stroke-dashoffset:0;stroke-opacity:1;color-rendering:auto;image-rendering:auto;shape-rendering:auto;text-rendering:auto;enable-background:accumulate"
       d="m 263.02218,911.80469 c -27.55248,-0.1879 -54.05502,13.09873 -73.96234,32.94726 -7.19145,5.52452 -17.29682,2.8613 -22.84525,-4.00167 -26.3718,-26.28719 -65.84385,-35.26641 -100.269124,-24.44364 -16.739093,5.14793 -32.418533,14.79685 -44.658545,28.0293 -8.646977,9.48161 -8.79268,25.5142 -0.58571,35.34179 11.480465,12.87142 26.542626,21.97557 42.283825,27.54737 32.872639,11.6492 70.905134,4.6992 97.853414,-18.66409 6.73899,-5.16159 13.14359,-14.2916 22.49607,-11.29929 9.25941,2.30408 14.19039,12.02991 22.32795,16.59055 33.25397,23.93373 79.47748,25.37783 113.57138,2.52273 9.14482,-6.21543 18.83345,-13.18421 24.14772,-23.54492 5.22195,-12.59772 -0.57358,-27.90102 -11.23465,-34.98242 -19.28111,-16.85414 -44.13747,-26.56284 -69.12474,-26.04297 z m -166.980385,11.0039 c 24.689635,-0.0509 49.051485,10.82003 66.703205,29.3711 9.36506,8.1538 23.97786,9.34823 33.35308,0.54056 10.40025,-8.53758 20.29126,-18.30129 33.00967,-22.7847 34.89333,-15.07579 79.18267,-5.92058 104.28197,25.125 4.74251,9.12933 -1.68702,19.92569 -9.44823,24.45703 -29.29391,25.36372 -72.8531,29.65882 -105.74258,9.48437 -9.10717,-4.92275 -16.34145,-12.60603 -24.33442,-19.15625 -10.33613,-6.82957 -24.63529,-4.9498 -33.03173,4.49796 -13.73284,13.25649 -30.50275,22.95549 -48.95301,25.97084 -30.605052,5.4199 -64.340097,-5.20566 -85.065193,-30.38091 -5.331279,-9.4856 1.630451,-20.40365 9.503679,-25.22775 17.112504,-14.02082 38.146222,-22.34276 59.723559,-21.89725 z"
       id="path4143"
       inkscape:connector-curvature="0" />
  </g>
</svg>
