<?xml version="1.0" encoding="UTF-8" standalone="no"?>
<!-- Created with Inkscape (http://www.inkscape.org/) -->

<svg
   xmlns:dc="http://purl.org/dc/elements/1.1/"
   xmlns:cc="http://creativecommons.org/ns#"
   xmlns:rdf="http://www.w3.org/1999/02/22-rdf-syntax-ns#"
   xmlns:svg="http://www.w3.org/2000/svg"
   xmlns="http://www.w3.org/2000/svg"
   xmlns:sodipodi="http://sodipodi.sourceforge.net/DTD/sodipodi-0.dtd"
   xmlns:inkscape="http://www.inkscape.org/namespaces/inkscape"
   width="360"
   height="180"
   viewBox="0 0 360 180"
   id="svg2"
   version="1.1"
   inkscape:version="0.91 r13725"
   sodipodi:docname="D4.svg">
  <defs
     id="defs4" />
  <sodipodi:namedview
     id="base"
     pagecolor="#ffffff"
     bordercolor="#666666"
     borderopacity="1.0"
     inkscape:pageopacity="0.0"
     inkscape:pageshadow="2"
     inkscape:zoom="3.7617187"
     inkscape:cx="150.59058"
     inkscape:cy="143.21637"
     inkscape:document-units="px"
     inkscape:current-layer="layer1"
     showgrid="false"
     units="px"
     showguides="false"
     inkscape:window-width="1853"
     inkscape:window-height="1056"
     inkscape:window-x="1987"
     inkscape:window-y="24"
     inkscape:window-maximized="1" />
  <metadata
     id="metadata7">
    <rdf:RDF>
      <cc:Work
         rdf:about="">
        <dc:format>image/svg+xml</dc:format>
        <dc:type
           rdf:resource="http://purl.org/dc/dcmitype/StillImage" />
        <dc:title></dc:title>
      </cc:Work>
    </rdf:RDF>
  </metadata>
  <g
     inkscape:label="Layer 1"
     inkscape:groupmode="layer"
     id="layer1"
     transform="translate(0,-872.36216)">
    <path
       style="opacity:1;fill:#11ea76;fill-opacity:0.7258883;stroke:none;stroke-width:32;stroke-linecap:round;stroke-linejoin:round;stroke-miterlimit:4;stroke-dasharray:none;stroke-dashoffset:10.19999981;stroke-opacity:1"
       d="m 107.17188,877.52427 c -7.822097,0.32204 -15.680965,0.31932 -23.550065,0.23807 -7.869099,-0.0812 -15.74843,-0.24102 -23.611453,-0.23307 -7.863023,0.008 -15.709738,0.18342 -23.513606,0.77273 -7.803868,0.58931 -15.564888,1.59246 -23.256522,3.25579 -2.093015,1.29194 -3.5110213,2.98115 -4.481025,4.91741 -0.9700037,1.93626 -1.4920047,4.11955 -1.7930088,6.39964 -0.3010047,2.28009 -0.3810118,4.65696 -0.4670274,6.98038 -0.086016,2.32341 -0.1780399,4.59336 -0.503079,6.6596 -0.4230809,8.64157 -0.6787066,17.29055 -0.8273314,25.94385 -0.1486248,8.65331 -0.1902488,17.31093 -0.1853264,25.96982 0.00492,8.65888 0.056391,17.31901 0.093952,25.97732 0.037561,8.65832 0.061213,17.31479 0.010503,25.96639 0.1672531,2.5383 0.2811228,5.149 0.4352781,7.7793 0.1541554,2.6304 0.3485964,5.2803 0.676992,7.897 0.3283957,2.6167 0.7907461,5.2002 1.4807203,7.6975 0.6899742,2.4974 1.6075722,4.9086 2.846463,7.1809 2.215249,1.7862 4.625995,2.9492 7.16168,3.714 2.535686,0.7649 5.196312,1.1317 7.91132,1.3256 2.715008,0.1939 5.484398,0.2149 8.237613,0.2882 2.753215,0.073 5.490253,0.1989 8.140559,0.6019 8.772915,0.1871 17.548054,0.2939 26.324123,0.339 8.776068,0.045 17.553065,0.028 26.329695,-0.032 8.776626,-0.06 17.552886,-0.163 26.327486,-0.2907 8.7746,-0.1277 17.54754,-0.2801 26.31752,-0.4386 1.84693,-0.2251 3.8052,-0.3758 5.79324,-0.5592 1.98803,-0.1833 4.00584,-0.3994 5.97185,-0.7555 1.96601,-0.356 3.88023,-0.8521 5.66109,-1.5953 1.78086,-0.7432 3.42836,-1.7335 4.86093,-3.0783 1.61252,-2.6375 2.61454,-5.4218 3.2348,-8.2983 0.62027,-2.8765 0.85877,-5.8453 0.94424,-8.8517 0.0855,-3.0064 0.0179,-6.0504 0.0261,-9.0775 0.008,-3.027 0.0921,-6.0371 0.4804,-8.9756 0.0248,-2.2834 0.0543,-4.5677 0.087,-6.85285 0.0327,-2.28514 0.0686,-4.57109 0.10634,-6.85773 0.0378,-2.28663 0.0774,-4.57394 0.1176,-6.8618 0.0402,-2.28786 0.0809,-4.57626 0.12075,-6.86508 -1.27373,0.56016 -2.49806,1.29973 -3.68752,2.14718 -1.18946,0.84746 -2.34406,1.80279 -3.47833,2.79448 -1.13427,0.99169 -2.2482,2.01973 -3.35634,3.01261 -1.10814,0.99287 -2.21048,1.95058 -3.32156,2.80159 -6.73707,5.84081 -14.16691,10.65579 -22.0357,14.4108 -7.8688,3.755 -16.17654,6.45 -24.66942,8.0509 -8.49287,1.6009 -17.170893,2.1076 -25.780234,1.4861 -8.60934,-0.6216 -17.150002,-2.3715 -25.368161,-5.2838 -3.9353,-1.3929 -7.828121,-3.0066 -11.633129,-4.8447 -3.805007,-1.8382 -7.522202,-3.90071 -11.106248,-6.19134 -3.584056,-2.29064 -7.034954,-4.8094 -10.307368,-7.55997 -3.272413,-2.75057 -6.366342,-5.73294 -9.236458,-8.9508 -2.051743,-2.4569 -3.581429,-5.30161 -4.586744,-8.33482 -1.005315,-3.03321 -1.48626,-6.25492 -1.440518,-9.46582 0.04574,-3.2109 0.618169,-6.41099 1.719597,-9.40095 1.101428,-2.98997 2.731857,-5.76981 4.893602,-8.14021 3.060003,-3.30811 6.334949,-6.39226 9.787664,-9.23809 3.452716,-2.84584 7.083201,-5.45337 10.854282,-7.80826 3.771079,-2.35489 7.682757,-4.45714 11.697858,-6.29241 4.015101,-1.83527 8.133626,-3.40356 12.318399,-4.69054 8.606319,-2.70569 17.528086,-4.17378 26.481742,-4.44322 8.953656,-0.26944 17.939196,0.65977 26.673076,2.74866 8.73388,2.08889 17.21608,5.33747 25.16305,9.70678 7.94697,4.36931 15.35871,9.85934 21.95166,16.43114 0.58063,0.71819 1.21137,1.38947 1.88357,2.00974 0.67219,0.62026 1.38583,1.1895 2.13225,1.70361 0.74642,0.51411 1.52562,0.97308 2.32893,1.37282 0.80331,0.39973 1.63074,0.74022 2.47361,1.01735 0.01,-4.32532 -0.004,-8.6494 -0.0502,-12.9711 -0.0466,-4.3217 -0.12638,-8.64103 -0.24874,-12.95684 -0.12237,-4.31582 -0.28738,-8.62811 -0.50457,-12.93575 -0.21718,-4.30764 -0.48654,-8.61061 -0.81759,-12.9078 -0.1163,-1.83185 -0.49106,-3.71001 -1.11555,-5.49704 -0.62449,-1.78704 -1.4987,-3.48296 -2.61388,-4.95035 -1.11519,-1.46739 -2.47134,-2.70626 -4.05971,-3.57919 -1.58838,-0.87294 -3.40898,-1.37993 -5.45305,-1.38357 -4.36351,-0.69295 -8.75298,-1.15226 -13.15889,-1.45681 -4.40591,-0.30455 -8.82825,-0.45433 -13.25747,-0.52821 -4.42923,-0.0739 -8.86535,-0.0719 -13.29881,-0.0728 -4.43346,-9.6e-4 -8.86427,-0.005 -13.28287,-0.0906 l 0,-1.6e-4 z"
       id="path4193"
       inkscape:connector-curvature="0"
       sodipodi:nodetypes="cssscssscssscssscssscssscssscssscssscssscssscssscssscssscssscssscssscssscsssccc" />
    <path
       style="opacity:1;fill:#11ea76;fill-opacity:0.7258883;stroke:none;stroke-width:32;stroke-linecap:round;stroke-linejoin:round;stroke-miterlimit:4;stroke-dasharray:none;stroke-dashoffset:10.19999981;stroke-opacity:1"
       d="m 287.27148,877.52427 c -7.79116,0.29314 -15.60956,0.29064 -23.43475,0.21885 -7.82519,-0.0718 -15.65717,-0.2129 -23.47547,-0.19695 -7.8183,0.016 -15.62293,0.18842 -23.39341,0.74376 -7.77048,0.55534 -15.50682,1.49356 -23.18855,3.04101 -2.2359,1.25531 -3.75418,2.94391 -4.79388,4.90347 -1.0397,1.95956 -1.60083,4.19008 -1.92242,6.52924 -0.32159,2.33915 -0.40363,4.78695 -0.48517,7.18105 -0.0815,2.3941 -0.16257,4.73451 -0.48213,6.8589 -0.16869,3.33649 -0.31039,6.67408 -0.42908,10.01261 -0.1187,3.33852 -0.2144,6.67798 -0.2911,10.01821 -0.0767,3.34023 -0.1344,6.68122 -0.1771,10.02282 -0.0427,3.3416 -0.0704,6.68379 -0.0871,10.02643 0.34393,-0.12155 0.68518,-0.25593 1.02298,-0.40403 0.3378,-0.14809 0.67215,-0.30991 1.00228,-0.48631 0.33013,-0.17641 0.65604,-0.3674 0.97695,-0.57386 0.32092,-0.20646 0.63684,-0.42838 0.94701,-0.66665 4.97683,-4.96213 10.36577,-9.51415 16.08023,-13.54803 5.71445,-4.03389 11.75442,-7.54965 18.0333,-10.43927 6.27888,-2.88962 12.79667,-5.1531 19.46677,-6.68243 6.6701,-1.52933 13.49251,-2.32452 20.38063,-2.27754 6.24681,-0.12997 12.48547,0.37935 18.63088,1.47978 6.14541,1.10043 12.19758,2.79197 18.07143,5.02645 5.87385,2.23448 11.56938,5.0119 17.00152,8.28408 5.43214,3.27218 10.60089,7.03912 15.42117,11.25266 2.66526,1.77035 5.02642,4.05457 6.98735,6.68191 1.96092,2.62735 3.52162,5.59782 4.58597,8.74068 1.06435,3.14286 1.63236,6.4581 1.60791,9.77499 -0.0245,3.31688 -0.64136,6.63541 -1.94685,9.78484 -1.32857,2.59018 -2.93046,4.96836 -4.72886,7.17578 -1.7984,2.20741 -3.79331,4.24405 -5.90793,6.15116 -2.11462,1.9071 -4.34894,3.68467 -6.62616,5.37393 -2.27722,1.68925 -4.59733,3.29019 -6.88353,4.84405 -8.52347,5.71374 -17.80511,9.90884 -27.45269,12.61334 -9.64759,2.7046 -19.66113,3.9187 -29.64842,3.6707 -9.98729,-0.248 -19.94833,-1.9581 -29.49093,-5.1022 -9.54259,-3.144 -18.66674,-7.72187 -26.98023,-13.70528 -1.89587,-1.06252 -3.61793,-2.40497 -5.26133,-3.8684 -1.6434,-1.46342 -3.20815,-3.04781 -4.78943,-4.59422 -1.58127,-1.54641 -3.17907,-3.05484 -4.88856,-4.36633 -1.70949,-1.31149 -3.53068,-2.42605 -5.55873,-3.18472 0.0127,2.64726 0.0247,5.29438 0.0343,7.94129 0.01,2.64692 0.0168,5.29361 0.0197,7.94003 0.003,2.64642 0.002,5.29256 -0.006,7.93833 -0.007,2.6458 -0.0208,5.2912 -0.0423,7.9362 0.13065,2.6051 0.23356,5.2523 0.38564,7.9069 0.15207,2.6545 0.35331,5.3163 0.68062,7.9507 0.32732,2.6345 0.78069,5.2415 1.43705,7.7862 0.65635,2.5448 1.51568,5.0273 2.65489,7.4128 2.19253,1.8726 4.61484,3.0948 7.17955,3.9003 2.56471,0.8056 5.27183,1.1943 8.03399,1.3999 2.76216,0.2056 5.57936,0.2281 8.36423,0.3011 2.78487,0.073 5.53742,0.1964 8.17028,0.6038 8.78132,0.1854 17.56502,0.2927 26.3497,0.3387 8.78468,0.046 17.57034,0.031 26.35557,-0.029 8.78524,-0.06 17.57005,-0.1639 26.35303,-0.2957 8.78299,-0.1317 17.56415,-0.2911 26.34209,-0.4612 1.87995,-0.2192 3.86243,-0.3637 5.86756,-0.5456 2.00514,-0.1819 4.03294,-0.4012 6.00352,-0.7699 1.97058,-0.3687 3.88395,-0.8867 5.66025,-1.6663 1.7763,-0.7795 3.41553,-1.8205 4.83781,-3.235 1.55409,-2.64 2.51557,-5.414 3.1079,-8.2723 0.59233,-2.8582 0.81553,-5.8008 0.89305,-8.7778 0.0775,-2.977 0.009,-5.9885 0.019,-8.9847 0.01,-2.9962 0.0971,-5.9771 0.48587,-8.8929 0.0973,-9.15839 0.27063,-18.32485 0.43163,-27.49414 0.161,-9.1693 0.30961,-18.34142 0.35732,-27.51114 0.0477,-9.16972 -0.005,-18.33705 -0.24809,-27.49676 -0.24261,-9.15971 -0.67464,-18.31181 -1.38461,-27.45105 -0.10079,-1.75311 -0.42518,-3.56703 -0.97599,-5.30805 -0.55081,-1.74102 -1.32804,-3.40914 -2.33453,-4.87063 -1.00648,-1.46149 -2.24221,-2.71636 -3.71002,-3.63089 -1.46782,-0.91453 -3.1677,-1.48873 -5.1025,-1.58887 -4.42443,-0.79024 -8.89267,-1.30749 -13.38781,-1.64565 -4.49514,-0.33815 -9.01717,-0.49721 -13.54917,-0.57107 -4.532,-0.0739 -9.07398,-0.0625 -13.609,-0.0599 -4.53503,0.003 -9.0631,-0.003 -13.56731,-0.11205 l -3e-5,0 -4e-5,0 -3e-5,-2e-5 z"
       id="path4191"
       inkscape:connector-curvature="0"
       sodipodi:nodetypes="cssscssscssscssscssscssscssscssscssscssscssscssscssscssscssscssscssscssscsssccccc" />
    <path
       style="opacity:1;fill:#11ea76;fill-opacity:0.7258883;stroke:none;stroke-width:32;stroke-linecap:round;stroke-linejoin:round;stroke-miterlimit:4;stroke-dasharray:none;stroke-dashoffset:10.19999981;stroke-opacity:1"
       d="m 94.021484,922.79185 c -5.216733,0.0241 -10.395437,0.55686 -15.488107,1.55468 -5.092669,0.99781 -10.099305,2.46068 -14.971904,4.345 -4.872599,1.88431 -9.61116,4.19008 -14.16768,6.87368 -4.55652,2.6836 -8.930999,5.74503 -13.075434,9.1407 -1.968307,1.20602 -3.879659,2.79297 -5.556214,4.64321 -1.676555,1.85024 -3.118312,3.96378 -4.147429,6.22299 -1.029115,2.25921 -1.64559,4.66409 -1.671582,7.09701 -0.02599,2.43293 0.538499,4.89391 1.871319,7.26531 5.181274,6.29381 11.175623,11.67826 17.730885,16.12999 6.555262,4.45173 13.671436,7.97073 21.096358,10.53363 7.424915,2.5629 15.158587,4.16965 22.948845,4.79705 7.790259,0.6273 15.637109,0.2751 23.288369,-1.0798 4.61256,-0.75384 9.12011,-1.9254 13.50145,-3.46584 4.38133,-1.54043 8.63644,-3.44975 12.74414,-5.6791 4.1077,-2.22935 8.06798,-4.77874 11.85963,-7.59931 3.79166,-2.82058 7.41469,-5.91235 10.8479,-9.22647 0.94497,-1.06329 1.96489,-2.02978 3.0456,-2.89831 1.08072,-0.86853 2.22222,-1.6391 3.41037,-2.31056 1.18814,-0.67146 2.42293,-1.24381 3.69019,-1.71589 1.26727,-0.47209 2.56701,-0.84391 3.88509,-1.1143 0.01,-0.67063 0.0188,-1.34121 0.0272,-2.01178 0.008,-0.67057 0.0162,-1.34112 0.0236,-2.01167 0.007,-0.67055 0.0146,-1.3411 0.0217,-2.01167 0.007,-0.67056 0.0141,-1.34115 0.0212,-2.01176 -1.11012,-0.23459 -2.20873,-0.54044 -3.28715,-0.91509 -1.07842,-0.37465 -2.13665,-0.8181 -3.16598,-1.32789 -1.02934,-0.50979 -2.02978,-1.08592 -2.99264,-1.72593 -0.96285,-0.64002 -1.88813,-1.34391 -2.76712,-2.10921 -4.41293,-4.63777 -9.24524,-8.79553 -14.3972,-12.42262 -5.15197,-3.6271 -10.62359,-6.72354 -16.31514,-9.23866 -5.69156,-2.51513 -11.60305,-4.44894 -17.63476,-5.75079 -6.0317,-1.30186 -12.18362,-1.97175 -18.356024,-1.95902 -0.168573,-0.004 -0.33701,-0.007 -0.50536,-0.009 -0.168351,-0.003 -0.336615,-0.005 -0.504843,-0.006 -0.168227,-0.002 -0.336418,-0.003 -0.504623,-0.003 -0.168205,-3.6e-4 -0.336424,-9e-5 -0.504706,9.1e-4 l 1.2e-5,0 1.3e-5,10e-6 1.2e-5,-2e-4 z"
       id="path4189"
       inkscape:connector-curvature="0"
       sodipodi:nodetypes="cssscssscssscssscssscssscssscssscsssccccc" />
    <path
       style="opacity:1;fill:#11ea76;fill-opacity:0.7258883;stroke:none;stroke-width:32;stroke-linecap:round;stroke-linejoin:round;stroke-miterlimit:4;stroke-dasharray:none;stroke-dashoffset:10.19999981;stroke-opacity:1"
       d="m 263.70117,922.82896 c -2.96674,0.0125 -5.9307,0.16851 -8.87824,0.46912 -2.94754,0.3006 -5.87865,0.74579 -8.77967,1.33664 -2.90103,0.59085 -5.77197,1.32737 -8.59916,2.21062 -2.82719,0.88326 -5.61064,1.91325 -8.33668,3.09104 -3.17961,1.12085 -6.1825,2.57163 -9.06082,4.25072 -2.87832,1.67908 -5.63207,3.58648 -8.31337,5.62057 -2.6813,2.03409 -5.29017,4.19487 -7.87872,6.38072 -2.58855,2.18586 -5.15679,4.3968 -7.75685,6.53119 -0.7998,0.75138 -1.63767,1.42992 -2.50711,2.03752 -0.86945,0.60761 -1.77048,1.14428 -2.6966,1.61194 -0.92613,0.46766 -1.87736,0.86631 -2.84719,1.19786 -0.96984,0.33155 -1.95829,0.596 -2.95887,0.79526 0.001,0.65883 0.003,1.31767 0.005,1.97652 0.002,0.65884 0.005,1.3177 0.008,1.97655 0.003,0.65885 0.006,1.31771 0.01,1.97658 0.003,0.65886 0.006,1.31773 0.009,1.9766 0.76694,0.15383 1.52815,0.34278 2.28078,0.56758 0.75263,0.2248 1.49668,0.48544 2.22932,0.78265 0.73263,0.29721 1.45384,0.63099 2.16078,1.00206 0.70695,0.37108 1.39963,0.77945 2.07521,1.22584 1.99824,1.63755 3.94904,3.34592 5.89353,5.06427 1.94448,1.71835 3.88265,3.44668 5.85564,5.12415 1.97299,1.67747 3.9808,3.30408 6.06456,4.819 2.08375,1.51491 4.24346,2.91813 6.52026,4.14882 8.22237,5.0436 17.11157,8.55786 26.27801,10.59591 9.16644,2.03801 18.61011,2.59991 27.94142,1.73871 9.33132,-0.8612 18.55027,-3.14549 27.26726,-6.79971 8.71699,-3.65421 16.93202,-8.67836 24.2555,-15.01928 1.9403,-1.13284 3.79744,-2.65724 5.41762,-4.44926 1.62018,-1.79203 3.0034,-3.85168 3.99588,-6.05501 0.99248,-2.20334 1.59422,-4.55036 1.65144,-6.91714 0.0572,-2.36677 -0.43011,-4.75329 -1.61574,-7.03562 -4.31394,-5.33596 -9.1948,-10.02534 -14.49741,-14.05622 -5.30262,-4.03088 -11.02701,-7.40325 -17.028,-10.10518 -6.00099,-2.70193 -12.27859,-4.73344 -18.68765,-6.08259 -6.40906,-1.34914 -12.94957,-2.01593 -19.47639,-1.98843 l 10e-6,0 10e-6,0 2e-5,0 z"
       id="rect4134"
       inkscape:connector-curvature="0"
       sodipodi:nodetypes="cssscssscssscssscssscssscssscssscsssccccc" />
  </g>
</svg>
