<?xml version="1.0" encoding="UTF-8" standalone="no"?>
<!-- Created with Inkscape (http://www.inkscape.org/) -->

<svg
   xmlns:dc="http://purl.org/dc/elements/1.1/"
   xmlns:cc="http://creativecommons.org/ns#"
   xmlns:rdf="http://www.w3.org/1999/02/22-rdf-syntax-ns#"
   xmlns:svg="http://www.w3.org/2000/svg"
   xmlns="http://www.w3.org/2000/svg"
   xmlns:sodipodi="http://sodipodi.sourceforge.net/DTD/sodipodi-0.dtd"
   xmlns:inkscape="http://www.inkscape.org/namespaces/inkscape"
   width="360"
   height="180"
   viewBox="0 0 360 180"
   id="svg2"
   version="1.1"
   inkscape:version="0.91 r13725"
   sodipodi:docname="D7.svg">
  <metadata
     id="metadata7">
    <rdf:RDF>
      <cc:Work
         rdf:about="">
        <dc:format>image/svg+xml</dc:format>
        <dc:type
           rdf:resource="http://purl.org/dc/dcmitype/StillImage" />
      </cc:Work>
    </rdf:RDF>
  </metadata>
  <defs
     id="defs4" />
  <sodipodi:namedview
     id="base"
     pagecolor="#ffffff"
     bordercolor="#666666"
     borderopacity="1.0"
     inkscape:pageopacity="0.0"
     inkscape:pageshadow="2"
     inkscape:zoom="2.212332"
     inkscape:cx="144.75528"
     inkscape:cy="102.29735"
     inkscape:document-units="px"
     inkscape:current-layer="svg2"
     showgrid="false"
     units="px"
     showguides="false"
     inkscape:window-width="1853"
     inkscape:window-height="1056"
     inkscape:window-x="1987"
     inkscape:window-y="24"
     inkscape:window-maximized="1" />
  <path
     style="opacity:1;fill:#ea4c89;fill-opacity:1;stroke:none;stroke-width:3;stroke-linecap:round;stroke-linejoin:round;stroke-miterlimit:4;stroke-dasharray:none;stroke-dashoffset:10.19999981;stroke-opacity:1"
     d="M 0,-7.542969 0,0 l 0,45 0,45 90,0 90,0 90,0 90,0 0,-45 0,-45 0,-7.542969 -4.89453,0 -0.0176,2.316407 -0.084,6.878906 -0.10352,6.878906 -0.11719,6.87695 -0.12109,6.87696 -0.11914,6.875 -0.10547,6.87109 -0.0859,6.87109 -0.23828,2.19727 -0.14648,2.21875 -0.0762,2.23242 -0.0254,2.24414 0.004,2.25 0.0117,2.25 0,2.2461 -0.0352,2.23828 -0.0879,2.22656 -0.16406,2.20703 -0.26172,2.1875 -0.37891,2.1582 -0.51562,2.12696 -0.67773,2.08984 -0.85547,2.05078 -1.0586,2.00391 -1.10547,0.99219 -1.17968,0.86328 -1.2461,0.74414 -1.30664,0.63476 -1.35547,0.53711 -1.40039,0.44922 -1.4375,0.37305 -1.46679,0.30664 -1.48633,0.25 -1.50195,0.20508 -1.50782,0.17187 -1.50781,0.14453 -1.49805,0.13086 -1.48242,0.12696 -1.45898,0.13476 -1.42774,0.15235 -6.58398,0.125 -6.58399,0.11914 -6.58593,0.11328 -6.58789,0.10351 -6.58789,0.0937 -6.5879,0.082 -6.58789,0.0684 -6.58984,0.0527 -6.58789,0.0352 -6.58984,0.0176 -6.5879,-0.002 -6.58984,-0.0234 -6.58789,-0.0469 -6.58789,-0.0703 -6.58789,-0.0957 -6.58594,-0.125 -1.99609,-0.25586 -2.03125,-0.17187 -2.06055,-0.10743 -2.08203,-0.0684 -2.09375,-0.0488 -2.09766,-0.0527 -2.09179,-0.0762 -2.08203,-0.12305 -2.0586,-0.19336 -2.03125,-0.2832 -1.99414,-0.39453 -1.94922,-0.5293 -1.89453,-0.68554 -1.83398,-0.86524 -1.76368,-1.06445 -1.6875,-1.28516 -0.80273,-1.80664 -0.70508,-1.83984 -0.61523,-1.86914 -0.53125,-1.89649 -0.45508,-1.91992 -0.38672,-1.93945 -0.32422,-1.95703 -0.27148,-1.97071 -0.22266,-1.98046 -0.18359,-1.98829 -0.15039,-1.99023 -0.125,-1.99219 -0.10547,-1.99023 -0.0937,-1.98242 -0.0918,-1.97266 -0.0937,-1.96094 0.0156,-1.98437 0.0117,-1.98438 0.01,-1.98242 0.006,-1.98437 0.006,-1.98438 0.002,-1.98633 0,-1.98437 -0.002,-1.98438 -0.002,-1.98437 -0.004,-1.98633 -0.006,-1.98438 -0.008,-1.98437 -0.008,-1.98633 -0.01,-1.98437 -0.008,-1.98633 -0.01,-1.98438 1.48242,0.63282 1.41602,0.75195 1.35547,0.85547 1.30469,0.94531 1.26172,1.01758 1.23046,1.07617 1.20508,1.12109 1.19141,1.15039 1.18359,1.16407 1.1875,1.16406 1.19727,1.14844 1.2207,1.11718 1.24805,1.07227 1.28711,1.01172 1.33593,0.9375 1.39063,0.84765 6.38086,4.22266 6.64844,3.69336 6.8789,3.16211 7.07227,2.62695 7.22851,2.08789 7.34961,1.54883 7.43164,1.00391 7.48047,0.46094 7.48828,-0.0898 7.46289,-0.63867 7.39844,-1.19336 7.29883,-1.74805 7.16016,-2.30859 6.98828,-2.86914 6.77539,-3.43555 6.5293,-4 1.71874,-1.17578 1.72461,-1.19531 1.72461,-1.22266 1.71485,-1.25 1.69922,-1.28515 1.67382,-1.32032 1.64649,-1.36328 1.60742,-1.40625 1.5625,-1.45508 1.50977,-1.50781 1.45117,-1.56445 1.38476,-1.62305 1.31055,-1.68945 1.22852,-1.75586 1.14257,-1.82813 1.04688,-1.90234 0.85156,-2.392578 0.60156,-2.4375 0.36329,-2.470703 0.13085,-2.484375 -0.0918,-2.484375 -0.30469,-2.46875 -0.50781,-2.435547 -0.2461,-0.837891 -10.99609,0 0.20898,0.242188 0.76172,1.728515 0.51368,1.757813 0.27929,1.771484 0.0625,1.777344 -0.14258,1.769531 -0.33203,1.75 -0.50976,1.720703 -0.66797,1.677735 -0.81445,1.623047 -0.94727,1.558593 -1.06641,1.480466 -1.16796,1.39258 -1.25782,1.29102 -1.33203,1.18164 -1.39062,1.05469 -1.4375,0.92187 -5.6543,4.50781 -5.94922,4.00977 -6.21289,3.50586 -6.4375,2.99609 -6.625,2.48242 -6.7793,1.96485 -6.89258,1.43945 -6.9707,0.91211 -7.01367,0.37891 -7.01953,-0.16016 -6.98828,-0.70508 -6.91992,-1.25195 -6.81641,-1.80664 -6.67773,-2.36328 -6.5,-2.92969 -6.28516,-3.4961 -1.68555,-0.95507 -1.64648,-1.01172 -1.60938,-1.06836 -1.57812,-1.11328 -1.54883,-1.15625 -1.52539,-1.19336 -1.50391,-1.22266 -1.48633,-1.24804 -1.47461,-1.26563 -1.46289,-1.28125 -1.46093,-1.28711 -1.45703,-1.28906 -1.46094,-1.28516 -1.4668,-1.277342 -1.47656,-1.261719 -1.49024,-1.240234 -0.50976,-0.328125 -0.51563,-0.3125 -0.52148,-0.300781 -0.52734,-0.285157 -0.53321,-0.271484 -0.53711,-0.257812 -0.54297,-0.242188 -0.54687,-0.230469 -0.55274,-0.216797 -0.55468,-0.201171 -0.56055,-0.1875 -0.5625,-0.175782 -0.56641,-0.162109 -0.56836,-0.148438 -0.57226,-0.134765 -0.57422,-0.123047 -0.002,-0.494141 -0.002,-0.49414 -0.002,-0.494141 -0.002,-0.49414 -0.004,-0.494141 -0.002,-0.494141 -0.002,-0.49414 -0.002,-0.494141 -0.002,-0.494141 -0.002,-0.49414 -0.002,-0.494141 -0.002,-0.494141 -0.002,-0.49414 -0.002,-0.494141 0,-0.49414 -0.002,-0.494141 0.74805,-0.162109 0.74414,-0.185547 0.73633,-0.210938 0.73047,-0.236328 0.7246,-0.261719 0.7168,-0.285156 0.70703,-0.3125 0.69922,-0.337891 0.68945,-0.363281 0.67969,-0.390625 0.66797,-0.416015 0.56445,-0.38086 -27.15429,0 0.64062,0.382813 0.75586,0.419922 0.76563,0.394531 0.77734,0.369141 0.78711,0.34375 0.79687,0.320312 0.80469,0.292969 0.8125,0.267578 0.81836,0.242187 0.82617,0.216797 0.83008,0.189453 -0.006,0.501954 -0.004,0.503906 -0.006,0.501953 -0.004,0.503906 -0.006,0.501953 -0.004,0.503906 -0.006,0.501954 -0.004,0.503906 -0.008,0.501953 -0.006,0.503906 -0.006,0.501953 -0.006,0.503907 -0.006,0.501953 -0.006,0.503906 -0.008,0.501953 -0.008,0.503906 -0.98437,0.222657 -0.97656,0.259765 -0.9668,0.296875 -0.95703,0.335938 -0.94336,0.373047 -0.93164,0.410156 -0.91602,0.447265 -0.90039,0.484376 -0.88086,0.521484 -0.86328,0.560547 -0.84375,0.595703 -0.82226,0.632812 -0.79883,0.669922 -0.77344,0.707034 -0.75,0.74218 -0.72266,0.7793 -2.60937,2.44336 -2.67969,2.35547 -2.74609,2.26172 -2.8125,2.16601 -2.875,2.06446 -2.93555,1.95703 -2.99609,1.8457 -3.05274,1.73242 -3.10742,1.61133 -3.16211,1.48633 -3.21094,1.35547 -3.26367,1.22461 -3.30859,1.08594 -3.35547,0.9414 -3.39844,0.79688 -3.43945,0.64257 -5.76953,0.82813 -5.82227,0.45508 -5.847654,0.084 L 88.588087,39.03323 82.761915,38.37894 76.978712,37.36136 71.263868,35.97855 65.640821,34.23636 60.134962,32.1348 54.765821,29.67776 49.562696,26.86722 44.543165,23.70315 39.736524,20.18948 35.164259,16.32815 30.847852,12.12112 26.812696,7.572296 25.955274,5.779327 25.369337,3.962921 25.037306,2.134796 l -0.0957,-1.828125 0.128907,-1.81836 0.332031,-1.794922 0.519531,-1.763671 0.691407,-1.720704 L 27,-7.542969 l -11.347656,0 -0.515625,2.275391 -0.330078,2.380859 -0.132813,2.402344 0.06445,2.408203 L 15,4.316406 l 0.458984,2.359375 0.65625,2.306641 0.851563,2.236328 1.048828,2.14648 1.244141,2.03907 1.441406,1.91211 2.193359,2.36914 2.273438,2.28125 2.349609,2.19336 2.419922,2.10742 2.486328,2.01953 2.548828,1.93164 2.609375,1.84766 2.66211,1.75976 2.71289,1.67578 2.757813,1.58985 2.798828,1.50586 2.83789,1.41992 2.869141,1.33594 2.898438,1.2539 2.921875,1.16992 2.943359,1.08594 6.220703,1.9668 6.316406,1.5332 6.390625,1.10547 6.441407,0.67773 6.464843,0.25586 6.468751,-0.16601 6.44531,-0.58203 6.40039,-0.99414 6.33008,-1.4043 6.23828,-1.8125 6.1211,-2.2168 5.98046,-2.61718 5.81446,-3.01368 5.62695,-3.41015 5.41406,-3.79883 5.17969,-4.1875 0.83203,-0.65625 0.83008,-0.69141 0.83008,-0.71679 0.83008,-0.73633 0.83203,-0.75 0.83593,-0.75782 0.83985,-0.75585 0.84765,-0.75 0.85352,-0.73633 0.86524,-0.71485 0.87304,-0.68945 0.88672,-0.6543 0.89844,-0.61328 0.91406,-0.56836 0.92774,-0.51172 0.94726,-0.45312 -0.0312,1.7168 -0.0293,1.71679 -0.0312,1.71485 -0.0293,1.71679 -0.0312,1.71485 -0.0293,1.71679 -0.0293,1.71485 -0.0273,1.71484 -0.0293,1.71485 -0.0254,1.71484 -0.0273,1.71289 -0.0234,1.71484 -0.0254,1.71289 -0.0215,1.71485 -0.0215,1.71289 -0.0195,1.71289 -0.23828,2.2168 -0.14453,2.23828 -0.0742,2.2539 -0.0234,2.26563 0.004,2.27344 0.0117,2.27343 -0.002,2.26954 -0.0391,2.26171 -0.0977,2.2461 -0.17578,2.22851 -0.27539,2.20313 -0.39648,2.17383 -0.54102,2.13867 -0.70508,2.09961 -0.89062,2.05664 -1.09766,2.0039 -1.11328,0.94336 -1.1875,0.82227 -1.25195,0.70703 -1.3086,0.60547 -1.35937,0.51367 -1.40234,0.42969 -1.43555,0.35742 -1.46289,0.29492 -1.48438,0.24219 -1.49414,0.20117 -1.5,0.16797 -1.49414,0.14453 -1.48437,0.13281 -1.46485,0.13086 -1.43945,0.13868 -1.4043,0.15625 -6.57812,0.11718 -6.58008,0.11328 -6.58008,0.10743 -6.58008,0.0996 -6.58203,0.0918 -6.58007,0.0781 -6.58204,0.0684 -6.582028,0.0527 -6.582031,0.0371 -6.583984,0.0195 -6.582031,-0.002 -6.582032,-0.0215 -6.582031,-0.0469 -6.582031,-0.0703 -6.580078,-0.0977 -6.580078,-0.125 -2.003907,-0.25391 -2.027343,-0.16992 -2.048828,-0.10937 -2.060547,-0.0684 -2.066407,-0.0488 -2.068359,-0.0508 -2.058594,-0.0723 -2.044922,-0.11718 -2.02539,-0.18164 -1.998047,-0.26563 -1.962891,-0.375 L 17.689703,82.27906 15.81275,81.62671 13.988531,80.80445 12.224859,79.79078 10.527594,78.56421 9.6565,76.8357 8.8986875,75.05835 8.2424375,73.23999 7.6818906,71.38453 7.2053281,69.49585 6.8049375,67.57984 6.4729062,65.64038 6.1994688,63.68531 5.9768125,61.71656 5.7951719,59.74195 5.6486875,57.76343 l -0.125,-1.97461 -0.109375,-1.96875 -0.1035156,-1.95508 -0.1054688,-1.93945 -0.1171875,-1.91601 0.025391,-6.49024 0.00195,-6.49023 -0.013672,-6.49219 -0.023437,-6.49414 -0.029297,-6.49414 -0.029297,-6.494142 -0.023437,-6.494141 -0.011719,-6.494141 0.00391,-3.609375 -4.9882812,0 z"
     id="south"
     inkscape:connector-curvature="0" />
  <path
     style="opacity:1;fill:#c32361;fill-opacity:1;stroke:none;stroke-width:3;stroke-linecap:round;stroke-linejoin:round;stroke-miterlimit:4;stroke-dasharray:none;stroke-dashoffset:10.19999981;stroke-opacity:1"
     d="m 0,-90 0,45 0,44.654297 4.9902344,0 -0.00586,-3.587891 0.00586,-6.49414 0.027344,-6.494141 0.058594,-6.492187 0.091797,-6.490235 0.1328124,-6.488281 0.1777344,-6.488281 0.2304688,-6.484375 0.2871094,-6.482422 0.203125,-1.585938 0.1386718,-1.648437 0.091797,-1.695313 0.070312,-1.730468 0.066406,-1.75 0.085938,-1.75586 0.1269531,-1.748047 0.1875,-1.726562 0.2714843,-1.689453 0.375,-1.638672 0.5,-1.574219 0.6464844,-1.496094 0.8144532,-1.404297 1.003906,-1.296875 1.214844,-1.175781 1.447265,-1.041015 5.78125,-1.126954 5.804688,-0.904296 5.826172,-0.701172 5.84375,-0.523438 5.861328,-0.367187 5.873047,-0.236328 5.884765,-0.126954 5.894532,-0.04102 5.90039,0.02148 5.902344,0.06055 5.90625,0.07813 5.902344,0.07227 5.90039,0.04297 5.892578,-0.01172 5.884768,-0.08594 5.87305,-0.183594 3.3164,0.05078 3.32031,0.02539 3.32227,0.01172 3.32422,0.002 3.32617,0.0019 3.32422,0.0078 3.32617,0.02148 3.32227,0.04297 3.32031,0.07031 3.3164,0.107422 3.31446,0.148438 3.30664,0.201172 3.30078,0.257812 3.29492,0.324219 3.28516,0.398437 3.27734,0.476563 1.49024,0.0957 1.40625,0.269531 1.32226,0.433594 1.23438,0.583984 1.14843,0.720703 1.0586,0.845704 0.97265,0.957031 0.88086,1.056641 0.79102,1.140624 0.69922,1.214844 0.60742,1.273438 0.51563,1.320312 0.42187,1.355469 0.32617,1.376953 0.23242,1.384766 0.13477,1.380859 0.23633,3.224609 0.21484,3.22461 0.19336,3.228516 0.17383,3.230468 0.15234,3.232422 0.13477,3.232422 0.11719,3.234375 0.0996,3.236328 0.084,3.238281 0.0684,3.238282 0.0547,3.240234 0.041,3.240234 0.0293,3.242188 0.0176,3.242187 0.006,3.242188 -0.002,3.244141 -0.6289,-0.21875 -0.62305,-0.244141 -0.61523,-0.265625 -0.60547,-0.289063 -0.59766,-0.310547 -0.58984,-0.333984 -0.57617,-0.353516 -0.56641,-0.375 -0.55469,-0.396484 -0.53906,-0.416016 -0.52734,-0.435546 -0.51172,-0.455078 -0.4961,-0.47461 -0.48047,-0.49414 -0.46289,-0.511719 -0.44336,-0.529297 -5.09375,-4.72461 -5.375,-4.316406 -5.62695,-3.904297 -5.85547,-3.486328 -6.05664,-3.066406 -6.23047,-2.642578 -6.3789,-2.214844 -6.49805,-1.783203 -6.59375,-1.347656 -6.66016,-0.910156 -6.701169,-0.46875 -6.716797,-0.02148 -6.705078,0.427735 -6.666015,0.880859 -6.601563,1.337891 -6.509766,1.796874 -3.126953,1.017579 -3.095703,1.123047 -3.066406,1.224609 -3.029297,1.326172 -2.992187,1.425781 -2.949219,1.525391 -2.902344,1.621093 -2.853515,1.71875 -2.802735,1.8125 -2.744141,1.908204 -2.6875,1.998046 -2.621093,2.089844 -2.556641,2.179688 -2.484375,2.265625 -2.412109,2.353515 -2.333985,2.439453 -1.521484,1.851563 -1.324219,1.986328 -1.123047,2.103516 -0.925781,2.199218 -0.726562,2.279297 -0.529297,2.337891 -0.330078,2.380859 -0.132813,2.402344 0.0039,0.138672 10.314454,0 0.08203,-1.166016 0.332031,-1.794922 0.519531,-1.763671 0.691407,-1.720704 0.847656,-1.666015 0.984375,-1.59961 1.105469,-1.521484 1.208984,-1.435547 1.298828,-1.335937 1.371094,-1.226563 1.423828,-1.105469 1.46289,-0.974609 3.152344,-2.484375 3.232422,-2.353516 3.310547,-2.220703 3.380859,-2.082031 3.451172,-1.941406 3.513672,-1.794922 3.574219,-1.644531 3.626953,-1.492188 3.679688,-1.333984 3.724609,-1.171875 3.765625,-1.00586 3.802734,-0.833984 3.835938,-0.660156 3.863281,-0.482422 3.884766,-0.298828 3.902343,-0.113281 0.126954,0 0.125,0 0.125,0 0.126953,0 0.126953,0 0.125,0 0.126953,0 0.126953,0.002 0.126953,0 0.125,0.002 0.125,0.002 0.126953,0.002 0.126953,0.002 0.125,0.002 0.126953,0.002 0.126954,0.0039 4.623041,0.117187 4.60742,0.369141 4.58008,0.615234 4.54492,0.857422 4.5,1.09375 4.44532,1.326172 4.38086,1.552734 4.30859,1.777344 4.22656,1.994141 4.13477,2.208984 4.0332,2.416016 3.92188,2.621093 3.80273,2.81836 3.67188,3.013672 3.53515,3.203125 3.38672,3.386718 0.66797,0.5625 0.68359,0.539063 0.70118,0.515625 0.71484,0.492187 0.72851,0.46875 0.74219,0.44336 0.75586,0.419922 0.76563,0.394531 0.77734,0.369141 0.78711,0.34375 0.79687,0.320312 0.80469,0.292969 0.8125,0.267578 0.81836,0.242187 0.82617,0.216797 0.83008,0.189453 -0.006,0.501954 -0.004,0.503906 -0.006,0.501953 -0.004,0.503906 -0.006,0.501953 -0.004,0.503906 -0.006,0.501954 -0.002,0.238281 10.17969,0 0,-0.195313 -0.002,-0.49414 -0.002,-0.494141 -0.002,-0.494141 -0.002,-0.49414 -0.002,-0.494141 0,-0.49414 -0.002,-0.494141 0.74805,-0.162109 0.74414,-0.185547 0.73633,-0.210938 0.73047,-0.236328 0.7246,-0.261719 0.7168,-0.285156 0.70703,-0.3125 0.69922,-0.337891 0.68945,-0.363281 0.67969,-0.390625 0.66797,-0.416015 0.6582,-0.44336 0.64649,-0.46875 0.63281,-0.496093 0.62109,-0.521485 0.60743,-0.550781 1.94531,-1.613281 1.9375,-1.632813 1.9375,-1.642578 1.9375,-1.642578 1.94531,-1.632813 1.95899,-1.615234 1.97461,-1.585937 1.99804,-1.546876 2.02539,-1.5 2.0586,-1.443359 2.09375,-1.376953 2.13672,-1.300781 2.18359,-1.214844 2.23437,-1.119141 2.29102,-1.015625 2.35156,-0.90039 2.05469,-0.855469 2.07617,-0.800781 2.09375,-0.746094 2.11133,-0.689453 2.12891,-0.634766 2.14257,-0.580078 2.15821,-0.523437 2.16992,-0.470703 2.18164,-0.416016 2.19141,-0.361328 2.19921,-0.308594 2.20704,-0.251953 2.21289,-0.199219 2.21875,-0.142578 2.22265,-0.08984 2.22461,-0.03711 4.89453,0.109375 4.88868,0.36914 4.86328,0.626954 4.83007,0.882812 4.7793,1.138672 4.7168,1.394531 4.64062,1.648438 4.55078,1.90039 4.44727,2.152344 4.33008,2.402344 4.19726,2.650391 4.05469,2.90039 3.89453,3.146484 3.72461,3.392579 3.53711,3.636718 3.33984,3.88086 0.76172,1.728515 0.51368,1.757813 0.27929,1.771484 0.0605,1.697266 10.28516,0 -0.0547,-1.455078 -0.30469,-2.46875 -0.50781,-2.435547 -0.70313,-2.386719 -0.89062,-2.322265 -1.06641,-2.242188 -1.23633,-2.144531 -1.39257,-2.03125 -1.54493,-1.904297 -1.68554,-1.757813 -1.81836,-1.597656 -1.93946,-1.421875 -3.67968,-3.076172 -3.80274,-2.902344 -3.91601,-2.728515 -4.02344,-2.544922 -4.12305,-2.361328 -4.21094,-2.169922 -4.29687,-1.976563 -4.36914,-1.777343 -4.4375,-1.574219 -4.49805,-1.363281 -4.54687,-1.152344 -4.58985,-0.935547 -4.625,-0.714844 -4.65234,-0.486328 -4.67188,-0.257812 -4.68164,-0.02148 -5.15234,0.121094 -5.12109,0.425781 -5.07813,0.722657 -5.0293,1.007812 -4.97265,1.283203 -4.9082,1.548828 -4.83399,1.802735 -4.75195,2.048828 -4.66406,2.28125 -4.56446,2.507812 -4.45898,2.720703 -4.34571,2.927735 -4.2246,3.121094 -4.0918,3.304687 -3.95508,3.478516 -3.80859,3.644531 -0.23438,0.175781 -0.23633,0.167969 -0.23828,0.164063 -0.23828,0.158203 -0.24219,0.152343 -0.24414,0.146485 -0.24414,0.140625 -0.24609,0.134765 -0.24805,0.128907 -0.25,0.125 -0.25195,0.11914 -0.25195,0.113282 -0.25391,0.107421 -0.25586,0.103516 -0.25586,0.09961 -0.25781,0.09375 0.0137,-2.507812 0.0195,-2.50586 0.0254,-2.507812 0.0293,-2.505859 0.0332,-2.50586 0.041,-2.505859 0.0469,-2.50586 0.0547,-2.503906 0.0606,-2.505859 0.0684,-2.505859 0.0762,-2.503907 0.0859,-2.503906 0.0937,-2.503906 0.10156,-2.503907 0.11133,-2.501953 0.12304,-2.501953 0.19727,-1.630859 0.13281,-1.697266 0.0859,-1.748047 0.0664,-1.783203 0.0645,-1.802734 0.0879,-1.808594 0.13086,-1.796875 0.20117,-1.771484 0.28906,-1.732422 0.40235,-1.675781 0.53711,-1.603516 0.69531,-1.517578 0.87305,-1.416016 1.07421,-1.300781 1.29883,-1.167969 1.54688,-1.019531 5.77148,-1.050781 5.78906,-0.841797 5.80664,-0.65625 5.82227,-0.492188 5.83398,-0.349609 5.84375,-0.22461 5.85352,-0.125 5.86133,-0.04492 5.86523,0.01367 5.86914,0.05078 5.86914,0.06836 5.8711,0.06445 5.86718,0.03711 5.86329,-0.0098 5.85547,-0.07813 5.8496,-0.167968 3.38282,0.06445 3.38867,0.0332 3.39453,0.01367 3.40039,0 3.40234,-0.0019 3.4043,0.0039 3.40235,0.01758 3.40039,0.04102 3.39648,0.07227 3.39258,0.113281 3.38281,0.164063 3.37695,0.220703 3.36524,0.289062 3.35547,0.365235 3.34179,0.449218 3.32618,0.542969 1.40625,0.162109 1.32031,0.328125 1.23047,0.478516 1.14453,0.621094 1.05664,0.748047 0.97265,0.861328 0.88282,0.966797 0.79883,1.054687 0.71093,1.132813 0.62696,1.197265 0.54101,1.25 0.45508,1.289063 0.37109,1.318359 0.28516,1.332032 0.20312,1.333984 0.11719,1.324219 0.48242,6.857422 0.38477,6.861328 0.29883,6.863281 0.21875,6.869141 0.14844,6.871093 0.084,6.873047 0.0312,6.875 -0.0156,6.876953 -0.0527,6.876954 -0.0606,4.880859 4.97266,0 L 360,-45 l 0,-45 -90,0 -90,0 -90,0 -90,0 z"
     id="north"
     inkscape:connector-curvature="0" />
</svg>
