<?xml version="1.0" encoding="UTF-8" standalone="no"?>
<!-- Created with Inkscape (http://www.inkscape.org/) -->

<svg
   xmlns:dc="http://purl.org/dc/elements/1.1/"
   xmlns:cc="http://creativecommons.org/ns#"
   xmlns:rdf="http://www.w3.org/1999/02/22-rdf-syntax-ns#"
   xmlns:svg="http://www.w3.org/2000/svg"
   xmlns="http://www.w3.org/2000/svg"
   xmlns:sodipodi="http://sodipodi.sourceforge.net/DTD/sodipodi-0.dtd"
   xmlns:inkscape="http://www.inkscape.org/namespaces/inkscape"
   width="360"
   height="180"
   viewBox="0 0 360 180"
   id="svg2"
   version="1.1"
   inkscape:version="0.91 r13725"
   sodipodi:docname="D8.svg">
  <metadata
     id="metadata7">
    <rdf:RDF>
      <cc:Work
         rdf:about="">
        <dc:format>image/svg+xml</dc:format>
        <dc:type
           rdf:resource="http://purl.org/dc/dcmitype/StillImage" />
      </cc:Work>
    </rdf:RDF>
  </metadata>
  <defs
     id="defs4" />
  <sodipodi:namedview
     id="base"
     pagecolor="#ffffff"
     bordercolor="#666666"
     borderopacity="1.0"
     inkscape:pageopacity="0.0"
     inkscape:pageshadow="2"
     inkscape:zoom="3.1287099"
     inkscape:cx="165.52187"
     inkscape:cy="123.17178"
     inkscape:document-units="px"
     inkscape:current-layer="svg2"
     showgrid="false"
     units="px"
     showguides="false"
     inkscape:window-width="1853"
     inkscape:window-height="1056"
     inkscape:window-x="1987"
     inkscape:window-y="24"
     inkscape:window-maximized="1" />
  <path
     style="opacity:1;fill:#77314c;fill-opacity:1;stroke:none;stroke-width:3;stroke-linecap:round;stroke-linejoin:round;stroke-miterlimit:4;stroke-dasharray:none;stroke-dashoffset:10.19999981;stroke-opacity:1"
     d="M 180 0 L 180 90 L 270 90 L 360 90 L 360 45 L 360 0 L 355.02344 0 L 355.00391 1.6523438 L 354.90039 8.53125 L 354.7832 15.408203 L 354.66211 22.285156 L 354.54297 29.160156 L 354.4375 36.03125 L 354.35156 42.902344 L 354.11328 45.099609 L 353.9668 47.318359 L 353.89062 49.550781 L 353.86523 51.794922 L 353.86914 54.044922 L 353.88086 56.294922 L 353.88086 58.541016 L 353.8457 60.779297 L 353.75781 63.005859 L 353.59375 65.212891 L 353.33203 67.400391 L 352.95312 69.558594 L 352.4375 71.685547 L 351.75977 73.775391 L 350.9043 75.826172 L 349.8457 77.830078 L 348.74023 78.822266 L 347.56055 79.685547 L 346.31445 80.429688 L 345.00781 81.064453 L 343.65234 81.601562 L 342.25195 82.050781 L 340.81445 82.423828 L 339.34766 82.730469 L 337.86133 82.980469 L 336.35938 83.185547 L 334.85156 83.357422 L 333.34375 83.501953 L 331.8457 83.632812 L 330.36328 83.759766 L 328.9043 83.894531 L 327.47656 84.046875 L 320.89258 84.171875 L 314.30859 84.291016 L 307.72266 84.404297 L 301.13477 84.507812 L 294.54688 84.601562 L 287.95898 84.683594 L 281.37109 84.751953 L 274.78125 84.804688 L 268.19336 84.839844 L 261.60352 84.857422 L 255.01562 84.855469 L 248.42578 84.832031 L 241.83789 84.785156 L 235.25 84.714844 L 228.66211 84.619141 L 222.07617 84.494141 L 220.08008 84.238281 L 218.04883 84.066406 L 215.98828 83.958984 L 213.90625 83.890625 L 211.8125 83.841797 L 209.71484 83.789062 L 207.62305 83.712891 L 205.54102 83.589844 L 203.48242 83.396484 L 201.45117 83.113281 L 199.45703 82.71875 L 197.50781 82.189453 L 195.61328 81.503906 L 193.7793 80.638672 L 192.01562 79.574219 L 190.32812 78.289062 L 189.52539 76.482422 L 188.82031 74.642578 L 188.20508 72.773438 L 187.67383 70.876953 L 187.21875 68.957031 L 186.83203 67.017578 L 186.50781 65.060547 L 186.23633 63.089844 L 186.01367 61.109375 L 185.83008 59.121094 L 185.67969 57.130859 L 185.55469 55.138672 L 185.44922 53.148438 L 185.35547 51.166016 L 185.26367 49.193359 L 185.16992 47.232422 L 185.18555 45.248047 L 185.19727 43.263672 L 185.20703 41.28125 L 185.21289 39.296875 L 185.21875 37.3125 L 185.2207 35.326172 L 185.2207 33.341797 L 185.21875 31.357422 L 185.2168 29.373047 L 185.21289 27.386719 L 185.20703 25.402344 L 185.19922 23.417969 L 185.19141 21.431641 L 185.18164 19.447266 L 185.17383 17.460938 L 185.16406 15.476562 L 186.64648 16.109375 L 188.0625 16.861328 L 189.41797 17.716797 L 190.72266 18.662109 L 191.98438 19.679688 L 193.21484 20.755859 L 194.41992 21.876953 L 195.61133 23.027344 L 196.79492 24.191406 L 197.98242 25.355469 L 199.17969 26.503906 L 200.40039 27.621094 L 201.64844 28.693359 L 202.93555 29.705078 L 204.27148 30.642578 L 205.66211 31.490234 L 212.04297 35.712891 L 218.69141 39.40625 L 225.57031 42.568359 L 232.64258 45.195312 L 239.87109 47.283203 L 247.2207 48.832031 L 254.65234 49.835938 L 262.13281 50.296875 L 269.62109 50.207031 L 277.08398 49.568359 L 284.48242 48.375 L 291.78125 46.626953 L 298.94141 44.318359 L 305.92969 41.449219 L 312.70508 38.013672 L 319.23438 34.013672 L 320.95312 32.837891 L 322.67773 31.642578 L 324.40234 30.419922 L 326.11719 29.169922 L 327.81641 27.884766 L 329.49023 26.564453 L 331.13672 25.201172 L 332.74414 23.794922 L 334.30664 22.339844 L 335.81641 20.832031 L 337.26758 19.267578 L 338.65234 17.644531 L 339.96289 15.955078 L 341.19141 14.199219 L 342.33398 12.371094 L 343.38086 10.46875 L 344.23242 8.0761719 L 344.83398 5.6386719 L 345.19727 3.1679688 L 345.32812 0.68359375 L 345.30273 0 L 334.98633 0 L 334.86523 1.5039062 L 334.5332 3.2539062 L 334.02344 4.9746094 L 333.35547 6.6523438 L 332.54102 8.2753906 L 331.59375 9.8339844 L 330.52734 11.314453 L 329.35938 12.707031 L 328.10156 13.998047 L 326.76953 15.179688 L 325.37891 16.234375 L 323.94141 17.15625 L 318.28711 21.664062 L 312.33789 25.673828 L 306.125 29.179688 L 299.6875 32.175781 L 293.0625 34.658203 L 286.2832 36.623047 L 279.39062 38.0625 L 272.41992 38.974609 L 265.40625 39.353516 L 258.38672 39.193359 L 251.39844 38.488281 L 244.47852 37.236328 L 237.66211 35.429688 L 230.98438 33.066406 L 224.48438 30.136719 L 218.19922 26.640625 L 216.51367 25.685547 L 214.86719 24.673828 L 213.25781 23.605469 L 211.67969 22.492188 L 210.13086 21.335938 L 208.60547 20.142578 L 207.10156 18.919922 L 205.61523 17.671875 L 204.14062 16.40625 L 202.67773 15.125 L 201.2168 13.837891 L 199.75977 12.548828 L 198.29883 11.263672 L 196.83203 9.9863281 L 195.35547 8.7246094 L 193.86523 7.484375 L 193.35547 7.15625 L 192.83984 6.84375 L 192.31836 6.5429688 L 191.79102 6.2578125 L 191.25781 5.9863281 L 190.7207 5.7285156 L 190.17773 5.4863281 L 189.63086 5.2558594 L 189.07812 5.0390625 L 188.52344 4.8378906 L 187.96289 4.6503906 L 187.40039 4.4746094 L 186.83398 4.3125 L 186.26562 4.1640625 L 185.69336 4.0292969 L 185.11914 3.90625 L 185.11719 3.4121094 L 185.11523 2.9179688 L 185.11328 2.4238281 L 185.11133 1.9296875 L 185.10547 1.4355469 L 185.10352 0.94140625 L 185.10156 0.44726562 L 185.09961 0 L 180 0 z "
     id="rect4215" />
  <path
     style="opacity:1;fill:#c1688a;fill-opacity:1;stroke:none;stroke-width:3;stroke-linecap:round;stroke-linejoin:round;stroke-miterlimit:4;stroke-dasharray:none;stroke-dashoffset:10.19999981;stroke-opacity:1"
     d="M 0 0 L 0 45 L 0 90 L 90 90 L 180 90 L 180 0 L 174.91406 0 L 174.9082 0.421875 L 174.90234 0.92578125 L 174.89648 1.4277344 L 174.88867 1.9316406 L 174.88281 2.4335938 L 174.87695 2.9375 L 174.86914 3.4394531 L 174.86133 3.9433594 L 173.87695 4.1660156 L 172.90039 4.4257812 L 171.93359 4.7226562 L 170.97656 5.0585938 L 170.0332 5.4316406 L 169.10156 5.8417969 L 168.18555 6.2890625 L 167.28516 6.7734375 L 166.4043 7.2949219 L 165.54102 7.8554688 L 164.69727 8.4511719 L 163.875 9.0839844 L 163.07617 9.7539062 L 162.30273 10.460938 L 161.55273 11.203125 L 160.83008 11.982422 L 158.2207 14.425781 L 155.54102 16.78125 L 152.79492 19.042969 L 149.98242 21.208984 L 147.10742 23.273438 L 144.17188 25.230469 L 141.17578 27.076172 L 138.12305 28.808594 L 135.01562 30.419922 L 131.85352 31.90625 L 128.64258 33.261719 L 125.37891 34.486328 L 122.07031 35.572266 L 118.71484 36.513672 L 115.31641 37.310547 L 111.87695 37.953125 L 106.10742 38.78125 L 100.28516 39.236328 L 94.4375 39.320312 L 88.587891 39.033203 L 82.761719 38.378906 L 76.978516 37.361328 L 71.263672 35.978516 L 65.640625 34.236328 L 60.134766 32.134766 L 54.765625 29.677734 L 49.5625 26.867188 L 44.542969 23.703125 L 39.736328 20.189453 L 35.164062 16.328125 L 30.847656 12.121094 L 26.8125 7.5722656 L 25.955078 5.7792969 L 25.369141 3.9628906 L 25.037109 2.1347656 L 24.941406 0.30664062 L 24.962891 0 L 14.6875 0 L 14.738281 1.9238281 L 15 4.3164062 L 15.458984 6.6757812 L 16.115234 8.9824219 L 16.966797 11.21875 L 18.015625 13.365234 L 19.259766 15.404297 L 20.701172 17.316406 L 22.894531 19.685547 L 25.167969 21.966797 L 27.517578 24.160156 L 29.9375 26.267578 L 32.423828 28.287109 L 34.972656 30.21875 L 37.582031 32.066406 L 40.244141 33.826172 L 42.957031 35.501953 L 45.714844 37.091797 L 48.513672 38.597656 L 51.351562 40.017578 L 54.220703 41.353516 L 57.119141 42.607422 L 60.041016 43.777344 L 62.984375 44.863281 L 69.205078 46.830078 L 75.521484 48.363281 L 81.912109 49.46875 L 88.353516 50.146484 L 94.818359 50.402344 L 101.28711 50.236328 L 107.73242 49.654297 L 114.13281 48.660156 L 120.46289 47.255859 L 126.70117 45.443359 L 132.82227 43.226562 L 138.80273 40.609375 L 144.61719 37.595703 L 150.24414 34.185547 L 155.6582 30.386719 L 160.83789 26.199219 L 161.66992 25.542969 L 162.5 24.851562 L 163.33008 24.134766 L 164.16016 23.398438 L 164.99219 22.648438 L 165.82812 21.890625 L 166.66797 21.134766 L 167.51562 20.384766 L 168.36914 19.648438 L 169.23438 18.933594 L 170.10742 18.244141 L 170.99414 17.589844 L 171.89258 16.976562 L 172.80664 16.408203 L 173.73438 15.896484 L 174.68164 15.443359 L 174.65039 17.160156 L 174.62109 18.876953 L 174.58984 20.591797 L 174.56055 22.308594 L 174.5293 24.023438 L 174.5 25.740234 L 174.4707 27.455078 L 174.44336 29.169922 L 174.41406 30.884766 L 174.38867 32.599609 L 174.36133 34.3125 L 174.33789 36.027344 L 174.3125 37.740234 L 174.29102 39.455078 L 174.26953 41.167969 L 174.25 42.880859 L 174.01172 45.097656 L 173.86719 47.335938 L 173.79297 49.589844 L 173.76953 51.855469 L 173.77344 54.128906 L 173.78516 56.402344 L 173.7832 58.671875 L 173.74414 60.933594 L 173.64648 63.179688 L 173.4707 65.408203 L 173.19531 67.611328 L 172.79883 69.785156 L 172.25781 71.923828 L 171.55273 74.023438 L 170.66211 76.080078 L 169.56445 78.083984 L 168.45117 79.027344 L 167.26367 79.849609 L 166.01172 80.556641 L 164.70312 81.162109 L 163.34375 81.675781 L 161.94141 82.105469 L 160.50586 82.462891 L 159.04297 82.757812 L 157.55859 83 L 156.06445 83.201172 L 154.56445 83.369141 L 153.07031 83.513672 L 151.58594 83.646484 L 150.12109 83.777344 L 148.68164 83.916016 L 147.27734 84.072266 L 140.69922 84.189453 L 134.11914 84.302734 L 127.53906 84.410156 L 120.95898 84.509766 L 114.37695 84.601562 L 107.79688 84.679688 L 101.21484 84.748047 L 94.632812 84.800781 L 88.050781 84.837891 L 81.466797 84.857422 L 74.884766 84.855469 L 68.302734 84.833984 L 61.720703 84.787109 L 55.138672 84.716797 L 48.558594 84.619141 L 41.978516 84.494141 L 39.974609 84.240234 L 37.947266 84.070312 L 35.898438 83.960938 L 33.837891 83.892578 L 31.771484 83.84375 L 29.703125 83.792969 L 27.644531 83.720703 L 25.599609 83.603516 L 23.574219 83.421875 L 21.576172 83.15625 L 19.613281 82.78125 L 17.689453 82.279297 L 15.8125 81.626953 L 13.988281 80.804688 L 12.224609 79.791016 L 10.527344 78.564453 L 9.65625 76.835938 L 8.8984375 75.058594 L 8.2421875 73.240234 L 7.6816406 71.384766 L 7.2050781 69.496094 L 6.8046875 67.580078 L 6.4726562 65.640625 L 6.1992188 63.685547 L 5.9765625 61.716797 L 5.7949219 59.742188 L 5.6484375 57.763672 L 5.5234375 55.789062 L 5.4140625 53.820312 L 5.3105469 51.865234 L 5.2050781 49.925781 L 5.0878906 48.009766 L 5.1132812 41.519531 L 5.1152344 35.029297 L 5.1015625 28.537109 L 5.078125 22.042969 L 5.0488281 15.548828 L 5.0195312 9.0546875 L 4.9960938 2.5605469 L 4.9921875 0 L 0 0 z "
     id="rect4217" />
  <path
     style="opacity:1;fill:#c32361;fill-opacity:1;stroke:none;stroke-width:3;stroke-linecap:round;stroke-linejoin:round;stroke-miterlimit:4;stroke-dasharray:none;stroke-dashoffset:10.19999981;stroke-opacity:1"
     d="M 180 -90 L 180 -0.34570312 L 185.09961 -0.34570312 L 185.09961 -0.54101562 L 185.09766 -1.0351562 L 185.0957 -1.5292969 L 185.09375 -2.0234375 L 185.0918 -2.5175781 L 185.08984 -3.0117188 L 185.08984 -3.5058594 L 185.08594 -4 L 185.83398 -4.1621094 L 186.57812 -4.3476562 L 187.31445 -4.5585938 L 188.04492 -4.7949219 L 188.76953 -5.0566406 L 189.48633 -5.3417969 L 190.19336 -5.6542969 L 190.89258 -5.9921875 L 191.58203 -6.3554688 L 192.26172 -6.7460938 L 192.92969 -7.1621094 L 193.58789 -7.6054688 L 194.23438 -8.0742188 L 194.86719 -8.5703125 L 195.48828 -9.0917969 L 196.0957 -9.6425781 L 198.04102 -11.255859 L 199.97852 -12.888672 L 201.91602 -14.53125 L 203.85352 -16.173828 L 205.79883 -17.806641 L 207.75781 -19.421875 L 209.73242 -21.007812 L 211.73047 -22.554688 L 213.75586 -24.054688 L 215.81445 -25.498047 L 217.9082 -26.875 L 220.04492 -28.175781 L 222.22852 -29.390625 L 224.46289 -30.509766 L 226.75391 -31.525391 L 229.10547 -32.425781 L 231.16016 -33.28125 L 233.23633 -34.082031 L 235.33008 -34.828125 L 237.44141 -35.517578 L 239.57031 -36.152344 L 241.71289 -36.732422 L 243.87109 -37.255859 L 246.04102 -37.726562 L 248.22266 -38.142578 L 250.41406 -38.503906 L 252.61328 -38.8125 L 254.82031 -39.064453 L 257.0332 -39.263672 L 259.25195 -39.40625 L 261.47461 -39.496094 L 263.69922 -39.533203 L 268.59375 -39.423828 L 273.48242 -39.054688 L 278.3457 -38.427734 L 283.17578 -37.544922 L 287.95508 -36.40625 L 292.67188 -35.011719 L 297.3125 -33.363281 L 301.86328 -31.462891 L 306.31055 -29.310547 L 310.64062 -26.908203 L 314.83789 -24.257812 L 318.89258 -21.357422 L 322.78711 -18.210938 L 326.51172 -14.818359 L 330.04883 -11.181641 L 333.38867 -7.3007812 L 334.15039 -5.5722656 L 334.66406 -3.8144531 L 334.94336 -2.0429688 L 335.00391 -0.34570312 L 345.28906 -0.34570312 L 345.23438 -1.8007812 L 344.92969 -4.2695312 L 344.42188 -6.7050781 L 343.71875 -9.0917969 L 342.82812 -11.414062 L 341.76172 -13.65625 L 340.52539 -15.800781 L 339.13281 -17.832031 L 337.58789 -19.736328 L 335.90234 -21.494141 L 334.08398 -23.091797 L 332.14453 -24.513672 L 328.46484 -27.589844 L 324.66211 -30.492188 L 320.74609 -33.220703 L 316.72266 -35.765625 L 312.59961 -38.126953 L 308.38867 -40.296875 L 304.0918 -42.273438 L 299.72266 -44.050781 L 295.28516 -45.625 L 290.78711 -46.988281 L 286.24023 -48.140625 L 281.65039 -49.076172 L 277.02539 -49.791016 L 272.37305 -50.277344 L 267.70117 -50.535156 L 263.01953 -50.556641 L 257.86719 -50.435547 L 252.74609 -50.009766 L 247.66797 -49.287109 L 242.63867 -48.279297 L 237.66602 -46.996094 L 232.75781 -45.447266 L 227.92383 -43.644531 L 223.17188 -41.595703 L 218.50781 -39.314453 L 213.94336 -36.806641 L 209.48438 -34.085938 L 205.13867 -31.158203 L 200.91406 -28.037109 L 196.82227 -24.732422 L 192.86719 -21.253906 L 189.05859 -17.609375 L 188.82422 -17.433594 L 188.58789 -17.265625 L 188.34961 -17.101562 L 188.11133 -16.943359 L 187.86914 -16.791016 L 187.625 -16.644531 L 187.38086 -16.503906 L 187.13477 -16.369141 L 186.88672 -16.240234 L 186.63672 -16.115234 L 186.38477 -15.996094 L 186.13281 -15.882812 L 185.87891 -15.775391 L 185.62305 -15.671875 L 185.36719 -15.572266 L 185.10938 -15.478516 L 185.12305 -17.986328 L 185.14258 -20.492188 L 185.16797 -23 L 185.19727 -25.505859 L 185.23047 -28.011719 L 185.27148 -30.517578 L 185.31836 -33.023438 L 185.37305 -35.527344 L 185.43359 -38.033203 L 185.50391 -40.539062 L 185.58008 -43.042969 L 185.66602 -45.546875 L 185.75781 -48.050781 L 185.85938 -50.554688 L 185.9707 -53.056641 L 186.09375 -55.558594 L 186.29102 -57.189453 L 186.42383 -58.886719 L 186.50977 -60.634766 L 186.57617 -62.417969 L 186.64062 -64.220703 L 186.72852 -66.029297 L 186.85938 -67.826172 L 187.06055 -69.597656 L 187.34961 -71.330078 L 187.75195 -73.005859 L 188.28906 -74.609375 L 188.98438 -76.126953 L 189.85742 -77.542969 L 190.93164 -78.84375 L 192.23047 -80.011719 L 193.77734 -81.03125 L 199.54883 -82.082031 L 205.33789 -82.923828 L 211.14453 -83.580078 L 216.9668 -84.072266 L 222.80078 -84.421875 L 228.64453 -84.646484 L 234.49805 -84.771484 L 240.35938 -84.816406 L 246.22461 -84.802734 L 252.09375 -84.751953 L 257.96289 -84.683594 L 263.83398 -84.619141 L 269.70117 -84.582031 L 275.56445 -84.591797 L 281.41992 -84.669922 L 287.26953 -84.837891 L 290.65234 -84.773438 L 294.04102 -84.740234 L 297.43555 -84.726562 L 300.83594 -84.726562 L 304.23828 -84.728516 L 307.64258 -84.724609 L 311.04492 -84.707031 L 314.44531 -84.666016 L 317.8418 -84.59375 L 321.23438 -84.480469 L 324.61719 -84.316406 L 327.99414 -84.095703 L 331.35938 -83.806641 L 334.71484 -83.441406 L 338.05664 -82.992188 L 341.38281 -82.449219 L 342.78906 -82.287109 L 344.10938 -81.958984 L 345.33984 -81.480469 L 346.48438 -80.859375 L 347.54102 -80.111328 L 348.51367 -79.25 L 349.39648 -78.283203 L 350.19531 -77.228516 L 350.90625 -76.095703 L 351.5332 -74.898438 L 352.07422 -73.648438 L 352.5293 -72.359375 L 352.90039 -71.041016 L 353.18555 -69.708984 L 353.38867 -68.375 L 353.50586 -67.050781 L 353.98828 -60.193359 L 354.37305 -53.332031 L 354.67188 -46.46875 L 354.89062 -39.599609 L 355.03906 -32.728516 L 355.12305 -25.855469 L 355.1543 -18.980469 L 355.13867 -12.103516 L 355.08789 -5.2265625 L 355.02539 -0.34570312 L 359.99805 -0.34570312 L 360 -45 L 360 -90 L 270 -90 L 180 -90 z "
     id="path4201" />
  <path
     style="opacity:1;fill:#c32361;fill-opacity:1;stroke:none;stroke-width:3;stroke-linecap:round;stroke-linejoin:round;stroke-miterlimit:4;stroke-dasharray:none;stroke-dashoffset:10.19999981;stroke-opacity:1"
     d="M 0 -90 L 0 -45 L 0 -0.34570312 L 4.9902344 -0.34570312 L 4.984375 -3.9335938 L 4.9902344 -10.427734 L 5.0175781 -16.921875 L 5.0761719 -23.414062 L 5.1679688 -29.904297 L 5.3007812 -36.392578 L 5.4785156 -42.880859 L 5.7089844 -49.365234 L 5.9960938 -55.847656 L 6.1992188 -57.433594 L 6.3378906 -59.082031 L 6.4296875 -60.777344 L 6.5 -62.507812 L 6.5664062 -64.257812 L 6.6523438 -66.013672 L 6.7792969 -67.761719 L 6.9667969 -69.488281 L 7.2382812 -71.177734 L 7.6132812 -72.816406 L 8.1132812 -74.390625 L 8.7597656 -75.886719 L 9.5742188 -77.291016 L 10.578125 -78.587891 L 11.792969 -79.763672 L 13.240234 -80.804688 L 19.021484 -81.931641 L 24.826172 -82.835938 L 30.652344 -83.537109 L 36.496094 -84.060547 L 42.357422 -84.427734 L 48.230469 -84.664062 L 54.115234 -84.791016 L 60.009766 -84.832031 L 65.910156 -84.810547 L 71.8125 -84.75 L 77.71875 -84.671875 L 83.621094 -84.599609 L 89.521484 -84.556641 L 95.414062 -84.568359 L 101.29883 -84.654297 L 107.17188 -84.837891 L 110.48828 -84.787109 L 113.80859 -84.761719 L 117.13086 -84.75 L 120.45508 -84.748047 L 123.78125 -84.746094 L 127.10547 -84.738281 L 130.43164 -84.716797 L 133.75391 -84.673828 L 137.07422 -84.603516 L 140.39062 -84.496094 L 143.70508 -84.347656 L 147.01172 -84.146484 L 150.3125 -83.888672 L 153.60742 -83.564453 L 156.89258 -83.166016 L 160.16992 -82.689453 L 161.66016 -82.59375 L 163.06641 -82.324219 L 164.38867 -81.890625 L 165.62305 -81.306641 L 166.77148 -80.585938 L 167.83008 -79.740234 L 168.80273 -78.783203 L 169.68359 -77.726562 L 170.47461 -76.585938 L 171.17383 -75.371094 L 171.78125 -74.097656 L 172.29688 -72.777344 L 172.71875 -71.421875 L 173.04492 -70.044922 L 173.27734 -68.660156 L 173.41211 -67.279297 L 173.64844 -64.054688 L 173.86328 -60.830078 L 174.05664 -57.601562 L 174.23047 -54.371094 L 174.38281 -51.138672 L 174.51758 -47.90625 L 174.63477 -44.671875 L 174.73438 -41.435547 L 174.81836 -38.197266 L 174.88672 -34.958984 L 174.94141 -31.71875 L 174.98242 -28.478516 L 175.01172 -25.236328 L 175.0293 -21.994141 L 175.03516 -18.751953 L 175.0332 -15.507812 L 174.4043 -15.726562 L 173.78125 -15.970703 L 173.16602 -16.236328 L 172.56055 -16.525391 L 171.96289 -16.835938 L 171.37305 -17.169922 L 170.79688 -17.523438 L 170.23047 -17.898438 L 169.67578 -18.294922 L 169.13672 -18.710938 L 168.60938 -19.146484 L 168.09766 -19.601562 L 167.60156 -20.076172 L 167.12109 -20.570312 L 166.6582 -21.082031 L 166.21484 -21.611328 L 161.12109 -26.335938 L 155.74609 -30.652344 L 150.11914 -34.556641 L 144.26367 -38.042969 L 138.20703 -41.109375 L 131.97656 -43.751953 L 125.59766 -45.966797 L 119.09961 -47.75 L 112.50586 -49.097656 L 105.8457 -50.007812 L 99.144531 -50.476562 L 92.427734 -50.498047 L 85.722656 -50.070312 L 79.056641 -49.189453 L 72.455078 -47.851562 L 65.945312 -46.054688 L 62.818359 -45.037109 L 59.722656 -43.914062 L 56.65625 -42.689453 L 53.626953 -41.363281 L 50.634766 -39.9375 L 47.685547 -38.412109 L 44.783203 -36.791016 L 41.929688 -35.072266 L 39.126953 -33.259766 L 36.382812 -31.351562 L 33.695312 -29.353516 L 31.074219 -27.263672 L 28.517578 -25.083984 L 26.033203 -22.818359 L 23.621094 -20.464844 L 21.287109 -18.025391 L 19.765625 -16.173828 L 18.441406 -14.1875 L 17.318359 -12.083984 L 16.392578 -9.8847656 L 15.666016 -7.6054688 L 15.136719 -5.2675781 L 14.806641 -2.8867188 L 14.673828 -0.484375 L 14.677734 -0.34570312 L 24.992188 -0.34570312 L 25.074219 -1.5117188 L 25.40625 -3.3066406 L 25.925781 -5.0703125 L 26.617188 -6.7910156 L 27.464844 -8.4570312 L 28.449219 -10.056641 L 29.554688 -11.578125 L 30.763672 -13.013672 L 32.0625 -14.349609 L 33.433594 -15.576172 L 34.857422 -16.681641 L 36.320312 -17.65625 L 39.472656 -20.140625 L 42.705078 -22.494141 L 46.015625 -24.714844 L 49.396484 -26.796875 L 52.847656 -28.738281 L 56.361328 -30.533203 L 59.935547 -32.177734 L 63.5625 -33.669922 L 67.242188 -35.003906 L 70.966797 -36.175781 L 74.732422 -37.181641 L 78.535156 -38.015625 L 82.371094 -38.675781 L 86.234375 -39.158203 L 90.119141 -39.457031 L 94.021484 -39.570312 L 94.148438 -39.570312 L 94.273438 -39.570312 L 94.398438 -39.570312 L 94.525391 -39.570312 L 94.652344 -39.570312 L 94.777344 -39.570312 L 94.904297 -39.570312 L 95.03125 -39.568359 L 95.158203 -39.568359 L 95.283203 -39.566406 L 95.408203 -39.564453 L 95.535156 -39.5625 L 95.662109 -39.560547 L 95.787109 -39.558594 L 95.914062 -39.556641 L 96.041016 -39.552734 L 100.66406 -39.435547 L 105.27148 -39.066406 L 109.85156 -38.451172 L 114.39648 -37.59375 L 118.89648 -36.5 L 123.3418 -35.173828 L 127.72266 -33.621094 L 132.03125 -31.84375 L 136.25781 -29.849609 L 140.39258 -27.640625 L 144.42578 -25.224609 L 148.34766 -22.603516 L 152.15039 -19.785156 L 155.82227 -16.771484 L 159.35742 -13.568359 L 162.74414 -10.181641 L 163.41211 -9.6191406 L 164.0957 -9.0800781 L 164.79688 -8.5644531 L 165.51172 -8.0722656 L 166.24023 -7.6035156 L 166.98242 -7.1601562 L 167.73828 -6.7402344 L 168.50391 -6.3457031 L 169.28125 -5.9765625 L 170.06836 -5.6328125 L 170.86523 -5.3125 L 171.66992 -5.0195312 L 172.48242 -4.7519531 L 173.30078 -4.5097656 L 174.12695 -4.2929688 L 174.95703 -4.1035156 L 174.95117 -3.6015625 L 174.94727 -3.0976562 L 174.94141 -2.5957031 L 174.9375 -2.0917969 L 174.93164 -1.5898438 L 174.92773 -1.0859375 L 174.92188 -0.58398438 L 174.91992 -0.34570312 L 180 -0.34570312 L 180 -90 L 90 -90 L 0 -90 z "
     id="north" />
</svg>
