<?xml version="1.0" encoding="UTF-8" standalone="no"?>
<!-- Created with Inkscape (http://www.inkscape.org/) -->

<svg
   xmlns:dc="http://purl.org/dc/elements/1.1/"
   xmlns:cc="http://creativecommons.org/ns#"
   xmlns:rdf="http://www.w3.org/1999/02/22-rdf-syntax-ns#"
   xmlns:svg="http://www.w3.org/2000/svg"
   xmlns="http://www.w3.org/2000/svg"
   xmlns:sodipodi="http://sodipodi.sourceforge.net/DTD/sodipodi-0.dtd"
   xmlns:inkscape="http://www.inkscape.org/namespaces/inkscape"
   width="360"
   height="180"
   viewBox="0 0 360 180"
   id="svg2"
   version="1.1"
   inkscape:version="0.91 r13725"
   sodipodi:docname="D8b.svg">
  <metadata
     id="metadata7">
    <rdf:RDF>
      <cc:Work
         rdf:about="">
        <dc:format>image/svg+xml</dc:format>
        <dc:type
           rdf:resource="http://purl.org/dc/dcmitype/StillImage" />
        <dc:title></dc:title>
      </cc:Work>
    </rdf:RDF>
  </metadata>
  <defs
     id="defs4" />
  <sodipodi:namedview
     id="base"
     pagecolor="#ffffff"
     bordercolor="#666666"
     borderopacity="1.0"
     inkscape:pageopacity="0.0"
     inkscape:pageshadow="2"
     inkscape:zoom="3.1287099"
     inkscape:cx="165.52187"
     inkscape:cy="148.74142"
     inkscape:document-units="px"
     inkscape:current-layer="svg2"
     showgrid="false"
     units="px"
     showguides="false"
     inkscape:window-width="1853"
     inkscape:window-height="1056"
     inkscape:window-x="67"
     inkscape:window-y="24"
     inkscape:window-maximized="1" />
  <path
     style="opacity:1;fill:#77314c;fill-opacity:1;stroke:none;stroke-width:3;stroke-linecap:round;stroke-linejoin:round;stroke-miterlimit:4;stroke-dasharray:none;stroke-dashoffset:10.19999981;stroke-opacity:1"
     d="M 270 84.830078 L 270 90 L 360 90 L 360 45 L 360 0 L 355.02344 0 L 355.00391 1.6523438 L 354.90039 8.53125 L 354.7832 15.408203 L 354.66211 22.285156 L 354.54297 29.160156 L 354.4375 36.03125 L 354.35156 42.902344 L 354.11328 45.099609 L 353.9668 47.318359 L 353.89062 49.550781 L 353.86523 51.794922 L 353.86914 54.044922 L 353.88086 56.294922 L 353.88086 58.541016 L 353.8457 60.779297 L 353.75781 63.005859 L 353.59375 65.212891 L 353.33203 67.400391 L 352.95312 69.558594 L 352.4375 71.685547 L 351.75977 73.775391 L 350.9043 75.826172 L 349.8457 77.830078 L 348.74023 78.822266 L 347.56055 79.685547 L 346.31445 80.429688 L 345.00781 81.064453 L 343.65234 81.601562 L 342.25195 82.050781 L 340.81445 82.423828 L 339.34766 82.730469 L 337.86133 82.980469 L 336.35938 83.185547 L 334.85156 83.357422 L 333.34375 83.501953 L 331.8457 83.632812 L 330.36328 83.759766 L 328.9043 83.894531 L 327.47656 84.046875 L 320.89258 84.171875 L 314.30859 84.291016 L 307.72266 84.404297 L 301.13477 84.507812 L 294.54688 84.601562 L 287.95898 84.683594 L 281.37109 84.751953 L 274.78125 84.804688 L 270 84.830078 z "
     id="path4252" />
  <path
     style="opacity:1;fill:#77314c;fill-opacity:1;stroke:none;stroke-width:3;stroke-linecap:round;stroke-linejoin:round;stroke-miterlimit:4;stroke-dasharray:none;stroke-dashoffset:10.19999981;stroke-opacity:1"
     d="M 270 39.105469 L 270 50.173828 L 277.08398 49.568359 L 284.48242 48.375 L 291.78125 46.626953 L 298.94141 44.318359 L 305.92969 41.449219 L 312.70508 38.013672 L 319.23438 34.013672 L 320.95312 32.837891 L 322.67773 31.642578 L 324.40234 30.419922 L 326.11719 29.169922 L 327.81641 27.884766 L 329.49023 26.564453 L 331.13672 25.201172 L 332.74414 23.794922 L 334.30664 22.339844 L 335.81641 20.832031 L 337.26758 19.267578 L 338.65234 17.644531 L 339.96289 15.955078 L 341.19141 14.199219 L 342.33398 12.371094 L 343.38086 10.46875 L 344.23242 8.0761719 L 344.83398 5.6386719 L 345.19727 3.1679688 L 345.32812 0.68359375 L 345.30273 0 L 334.98633 0 L 334.86523 1.5039062 L 334.5332 3.2539062 L 334.02344 4.9746094 L 333.35547 6.6523438 L 332.54102 8.2753906 L 331.59375 9.8339844 L 330.52734 11.314453 L 329.35938 12.707031 L 328.10156 13.998047 L 326.76953 15.179688 L 325.37891 16.234375 L 323.94141 17.15625 L 318.28711 21.664062 L 312.33789 25.673828 L 306.125 29.179688 L 299.6875 32.175781 L 293.0625 34.658203 L 286.2832 36.623047 L 279.39062 38.0625 L 272.41992 38.974609 L 270 39.105469 z "
     id="path4250" />
  <path
     style="opacity:1;fill:#77314c;fill-opacity:1;stroke:none;stroke-width:3;stroke-linecap:round;stroke-linejoin:round;stroke-miterlimit:4;stroke-dasharray:none;stroke-dashoffset:10.19999981;stroke-opacity:1"
     d="M 185.91211 60 L 180 60 L 180 90 L 270 90 L 270 84.830078 L 268.19336 84.839844 L 261.60352 84.857422 L 255.01562 84.855469 L 248.42578 84.832031 L 241.83789 84.785156 L 235.25 84.714844 L 228.66211 84.619141 L 222.07617 84.494141 L 220.08008 84.238281 L 218.04883 84.066406 L 215.98828 83.958984 L 213.90625 83.890625 L 211.8125 83.841797 L 209.71484 83.789062 L 207.62305 83.712891 L 205.54102 83.589844 L 203.48242 83.396484 L 201.45117 83.113281 L 199.45703 82.71875 L 197.50781 82.189453 L 195.61328 81.503906 L 193.7793 80.638672 L 192.01562 79.574219 L 190.32812 78.289062 L 189.52539 76.482422 L 188.82031 74.642578 L 188.20508 72.773438 L 187.67383 70.876953 L 187.21875 68.957031 L 186.83203 67.017578 L 186.50781 65.060547 L 186.23633 63.089844 L 186.01367 61.109375 L 185.91211 60 z "
     id="path4259" />
  <path
     style="opacity:1;fill:#77314c;fill-opacity:1;stroke:none;stroke-width:3;stroke-linecap:round;stroke-linejoin:round;stroke-miterlimit:4;stroke-dasharray:none;stroke-dashoffset:10.19999981;stroke-opacity:1"
     d="M 180 0 L 180 60 L 185.91211 60 L 185.83008 59.121094 L 185.67969 57.130859 L 185.55469 55.138672 L 185.44922 53.148438 L 185.35547 51.166016 L 185.26367 49.193359 L 185.16992 47.232422 L 185.18555 45.248047 L 185.19727 43.263672 L 185.20703 41.28125 L 185.21289 39.296875 L 185.21875 37.3125 L 185.2207 35.326172 L 185.2207 33.341797 L 185.21875 31.357422 L 185.2168 29.373047 L 185.21289 27.386719 L 185.20703 25.402344 L 185.19922 23.417969 L 185.19141 21.431641 L 185.18164 19.447266 L 185.17383 17.460938 L 185.16406 15.476562 L 186.64648 16.109375 L 188.0625 16.861328 L 189.41797 17.716797 L 190.72266 18.662109 L 191.98438 19.679688 L 193.21484 20.755859 L 194.41992 21.876953 L 195.61133 23.027344 L 196.79492 24.191406 L 197.98242 25.355469 L 199.17969 26.503906 L 200.40039 27.621094 L 201.64844 28.693359 L 202.93555 29.705078 L 204.27148 30.642578 L 205.66211 31.490234 L 212.04297 35.712891 L 218.69141 39.40625 L 225.57031 42.568359 L 232.64258 45.195312 L 239.87109 47.283203 L 247.2207 48.832031 L 254.65234 49.835938 L 262.13281 50.296875 L 269.62109 50.207031 L 270 50.173828 L 270 39.105469 L 265.40625 39.353516 L 258.38672 39.193359 L 251.39844 38.488281 L 244.47852 37.236328 L 237.66211 35.429688 L 230.98438 33.066406 L 224.48438 30.136719 L 218.19922 26.640625 L 216.51367 25.685547 L 214.86719 24.673828 L 213.25781 23.605469 L 211.67969 22.492188 L 210.13086 21.335938 L 208.60547 20.142578 L 207.10156 18.919922 L 205.61523 17.671875 L 204.14062 16.40625 L 202.67773 15.125 L 201.2168 13.837891 L 199.75977 12.548828 L 198.29883 11.263672 L 196.83203 9.9863281 L 195.35547 8.7246094 L 193.86523 7.484375 L 193.35547 7.15625 L 192.83984 6.84375 L 192.31836 6.5429688 L 191.79102 6.2578125 L 191.25781 5.9863281 L 190.7207 5.7285156 L 190.17773 5.4863281 L 189.63086 5.2558594 L 189.07812 5.0390625 L 188.52344 4.8378906 L 187.96289 4.6503906 L 187.40039 4.4746094 L 186.83398 4.3125 L 186.26562 4.1640625 L 185.69336 4.0292969 L 185.11914 3.90625 L 185.11719 3.4121094 L 185.11523 2.9179688 L 185.11328 2.4238281 L 185.11133 1.9296875 L 185.10547 1.4355469 L 185.10352 0.94140625 L 185.10156 0.44726562 L 185.09961 0 L 180 0 z "
     id="rect4215" />
</svg>
